<svg width="24" height="24" viewBox="0 0 24 24" fill="none" xmlns="http://www.w3.org/2000/svg">
<path d="M2 13.4882L3.41561 19.6951L7.11798 15.6661L10.0581 19.6951" stroke="white" stroke-width="1.5" stroke-linecap="round"/>
<path d="M9.09801 13.5971L13.236 19.5862L16.5028 14.0327H20.6407" stroke="white" stroke-width="1.5" stroke-linecap="round"/>
<path d="M17.9383 16.9728C17.9383 16.9728 18.9184 16.9728 20.7696 16.9728C22.6207 16.9728 22.1852 19.5862 20.7696 19.5862C19.3539 19.5862 16.5227 19.5862 16.5227 19.5862" stroke="white" stroke-width="1.5" stroke-linecap="round"/>
<path d="M9.154 10.499L11.8825 9.36068L13.019 6.62771C13.097 6.4409 13.403 6.4409 13.481 6.62771L14.6175 9.36068L17.346 10.499C17.4395 10.5381 17.5 10.6293 17.5 10.7304C17.5 10.8316 17.4395 10.9227 17.346 10.9618L14.6175 12.1002L13.481 14.8331C13.442 14.9268 13.351 14.9874 13.25 14.9874C13.149 14.9874 13.058 14.9268 13.019 14.8331L11.8825 12.1002L9.154 10.9618C9.0605 10.9227 9 10.8316 9 10.7304C9 10.6293 9.0605 10.5381 9.154 10.499ZM15.671 6.9868L17.427 6.40034L18.0125 4.64146C18.081 4.43712 18.419 4.43712 18.487 4.64146L19.073 6.40034L20.829 6.9868C20.931 7.02135 21 7.11701 21 7.22469C21 7.33236 20.931 7.42802 20.829 7.46258L19.0725 8.04904L18.487 9.80841C18.453 9.91008 18.3575 9.97919 18.25 9.97919C18.1425 9.97919 18.047 9.91008 18.0125 9.80791L17.427 8.04853L15.6705 7.46207C15.569 7.42802 15.5 7.33236 15.5 7.22469C15.5 7.11701 15.569 7.02135 15.671 6.9868ZM7.671 5.49745L8.6775 5.1614L9.013 4.15325C9.0815 3.94892 9.4195 3.94892 9.4875 4.15325L9.823 5.1614L10.8295 5.49745C10.931 5.53201 11 5.62766 11 5.73534C11 5.84302 10.931 5.93867 10.829 5.97323L9.8225 6.30928L9.487 7.31743C9.453 7.4191 9.3575 7.48821 9.25 7.48821C9.1425 7.48821 9.047 7.4191 9.0125 7.31693L8.677 6.30878L7.6705 5.97273C7.569 5.93867 7.5 5.84302 7.5 5.73534C7.5 5.62766 7.569 5.53201 7.671 5.49745Z" fill="white"/>
</svg>
