<?xml version="1.0" standalone="no"?>
<!DOCTYPE svg PUBLIC "-//W3C//DTD SVG 20010904//EN"
 "http://www.w3.org/TR/2001/REC-SVG-20010904/DTD/svg10.dtd">
<svg version="1.0" xmlns="http://www.w3.org/2000/svg"
 width="400.000000pt" height="400.000000pt" viewBox="0 0 400.000000 400.000000"
 preserveAspectRatio="xMidYMid meet">

<g transform="translate(0.000000,400.000000) scale(0.100000,-0.100000)"
fill="#000000" stroke="none">
<path d="M730 2568 c0 -1139 -1 -1108 50 -1214 13 -25 46 -70 74 -99 51 -53
1127 -875 1146 -875 19 0 1119 841 1159 886 45 52 85 129 100 195 7 28 11 426
11 1107 l0 1062 -1270 0 -1270 0 0 -1062z m323 862 l50 0 -37 -33 c-37 -31
-38 -33 -27 -72 6 -21 9 -41 6 -43 -2 -2 -17 5 -33 17 -17 12 -35 21 -42 21
-7 0 -25 -9 -42 -21 -16 -12 -31 -19 -33 -17 -3 2 0 22 6 43 11 39 10 41 -27
72 l-37 33 51 0 c29 0 52 5 52 10 0 6 7 27 16 48 l17 37 15 -47 16 -48 49 0z
m857 28 c8 -25 14 -28 57 -28 l48 -1 -38 -32 c-36 -31 -37 -34 -26 -65 16 -47
8 -55 -31 -28 l-35 23 -35 -23 c-19 -13 -38 -24 -41 -24 -4 0 -1 19 6 43 l13
42 -36 32 -37 32 46 1 c46 0 46 0 64 47 20 51 19 51 45 -19z m910 13 c13 -40
15 -41 57 -41 23 0 43 -3 43 -7 0 -5 -16 -18 -34 -31 l-35 -24 15 -40 c8 -23
12 -43 10 -45 -2 -3 -21 7 -42 21 l-37 25 -34 -26 c-18 -14 -36 -23 -39 -20
-3 3 0 23 6 43 13 38 12 39 -25 70 l-37 33 49 3 c47 3 48 4 62 45 8 23 18 40
21 38 4 -2 12 -22 20 -44z m140 -1223 l0 -1063 -152 -115 c-84 -63 -156 -116
-160 -118 -5 -2 -8 454 -8 1013 l0 1018 156 163 c86 90 158 164 160 164 2 0 4
-478 4 -1062z m-661 865 c-325 -339 -686 -703 -696 -703 -16 0 -27 43 -19 75
4 14 13 25 21 25 7 0 17 5 20 10 8 13 -14 77 -39 114 -23 35 -35 141 -17 159
18 18 13 47 -8 47 -11 0 -23 5 -26 10 -3 6 -17 10 -29 10 -13 0 -28 6 -34 13
-9 10 -5 17 16 29 111 66 105 179 -13 238 -133 66 -320 -4 -320 -121 0 -65 54
-118 143 -140 l42 -11 0 -217 c0 -155 -3 -220 -12 -229 -7 -7 -33 -12 -59 -12
-26 0 -51 -4 -54 -10 -4 -7 58 -10 179 -10 102 0 186 -3 186 -7 -1 -5 -99
-109 -220 -233 l-219 -225 -1 648 0 647 631 0 632 0 -104 -107z m-90 -263 c12
-40 12 -40 64 -40 l52 0 -40 -34 c-39 -33 -39 -33 -27 -73 17 -56 17 -56 -28
-27 l-40 27 -40 -27 c-44 -29 -45 -28 -29 28 11 39 10 40 -28 72 l-38 33 51 1
c51 0 51 0 63 40 6 22 15 40 20 40 4 0 13 -18 20 -40z m-769 12 c0 -10 5 -23
10 -28 14 -14 1 -94 -14 -94 -32 0 -63 122 -33 133 24 10 37 7 37 -11z m970
-1107 l0 -984 -157 -121 c-87 -66 -161 -120 -165 -120 -5 0 -8 423 -8 940 l0
941 158 164 c86 91 160 165 165 165 4 0 7 -443 7 -985z m-964 828 c15 -27 29
-59 30 -72 2 -14 12 -36 22 -50 10 -14 17 -32 15 -38 -6 -17 -95 -17 -111 -1
-8 8 -12 47 -12 110 0 115 12 126 56 51z m-458 -42 c11 -36 15 -39 60 -46 l47
-7 -34 -29 c-34 -28 -34 -29 -22 -70 7 -22 11 -43 9 -45 -2 -2 -21 8 -41 22
l-37 25 -37 -25 c-20 -14 -39 -24 -41 -22 -2 2 2 23 9 45 12 41 12 42 -22 70
l-34 29 46 7 c43 6 47 10 59 46 7 21 16 39 20 39 4 0 12 -17 18 -39z m572
-115 c0 -3 -4 -8 -10 -11 -5 -3 -10 -1 -10 4 0 6 5 11 10 11 6 0 10 -2 10 -4z
m40 -198 c14 -41 17 -43 65 -49 28 -3 46 -7 40 -8 -5 -1 -23 -13 -39 -27 -28
-24 -28 -27 -17 -66 7 -22 11 -42 9 -44 -2 -2 -21 8 -41 22 l-37 25 -37 -25
c-20 -14 -39 -24 -41 -21 -2 2 1 18 7 36 16 47 14 54 -24 80 l-35 24 48 5 c45
5 48 7 62 48 8 23 17 42 20 42 3 0 12 -19 20 -42z m246 -1646 c-3 -2 -75 49
-160 115 l-156 118 0 520 0 520 158 158 157 157 3 -791 c1 -436 0 -794 -2
-797z m-792 978 l51 0 -39 -33 c-37 -32 -38 -33 -27 -72 16 -57 15 -59 -22
-31 -41 31 -51 32 -89 5 -16 -12 -31 -19 -33 -17 -3 2 0 22 6 43 11 39 10 41
-27 72 l-37 33 51 0 c29 0 52 5 52 10 0 6 7 27 16 48 l17 37 15 -47 16 -48 50
0z m241 -558 c-3 -3 -81 53 -175 124 l-170 129 47 50 c26 27 104 107 173 178
l125 127 3 -301 c1 -166 0 -304 -3 -307z"/>
</g>
</svg>
