<svg width="28" height="28" viewBox="0 0 28 28" fill="none" xmlns="http://www.w3.org/2000/svg">
<path d="M27.3333 14C27.3333 21.3647 21.364 27.3334 14 27.3334C6.63599 27.3334 0.666656 21.3647 0.666656 14C0.666656 6.63535 6.63599 0.666687 14 0.666687C21.364 0.666687 27.3333 6.63535 27.3333 14Z" fill="#FF754C"/>
<path d="M14.6667 14.6667H18.706C18.9553 18.0094 21.0553 20.9234 24.1313 22.656C24.422 22.3147 24.6973 21.962 24.952 21.5934C22.1927 20.1067 20.294 17.5767 20.04 14.6667H27.3C27.3107 14.4454 27.3333 14.2254 27.3333 14C27.3333 13.7747 27.3107 13.5547 27.2993 13.3334H20.04C20.2947 10.4234 22.1927 7.89335 24.952 6.40602C24.6967 6.03735 24.4213 5.68469 24.1313 5.34335C21.056 7.07669 18.9553 9.99069 18.706 13.3327H14.6667V0.700687C14.4447 0.69002 14.2253 0.666687 14 0.666687C13.7747 0.666687 13.5553 0.69002 13.3333 0.700687V13.3334H9.29399C9.04399 9.99069 6.94466 7.07669 3.86866 5.34402C3.57866 5.68535 3.30266 6.03802 3.04799 6.40669C5.80732 7.89335 7.70466 10.4234 7.95932 13.334H0.700657C0.689323 13.5547 0.666656 13.7747 0.666656 14C0.666656 14.2254 0.689323 14.4454 0.700657 14.6667H7.95999C7.70532 17.5767 5.80732 20.1067 3.04866 21.594C3.30399 21.9627 3.57932 22.3154 3.86932 22.6567C6.94466 20.9234 9.04466 18.0094 9.29466 14.6674H13.3333V27.3C13.5553 27.31 13.7747 27.3334 14 27.3334C14.2253 27.3334 14.4447 27.31 14.6667 27.2994V14.6667Z" fill="#E64A19"/>
</svg>
