<svg width="32" height="32" viewBox="0 0 32 32" fill="none" xmlns="http://www.w3.org/2000/svg">
<path d="M4 15.3333V16.6667C4 22.926 9.37267 28 16 28C22.6273 28 28 22.926 28 16.6667V15.3333H4Z" fill="url(#paint0_linear_78_699)"/>
<path d="M16 26.0373C22.2592 26.0373 27.3333 21.245 27.3333 15.3333C27.3333 9.42168 22.2592 4.62933 16 4.62933C9.74077 4.62933 4.66667 9.42168 4.66667 15.3333C4.66667 21.245 9.74077 26.0373 16 26.0373Z" fill="url(#paint1_linear_78_699)"/>
<path d="M4.66667 16C4.66667 10.0887 9.74067 5.29601 16 5.29601C22.2593 5.29601 27.3333 10.0887 27.3333 16" stroke="url(#paint2_linear_78_699)" stroke-width="2" stroke-miterlimit="10"/>
<path d="M16 5.33333C21.8813 5.33333 26.6667 9.81933 26.6667 15.3333C26.6667 20.8473 21.8813 25.3333 16 25.3333C10.1187 25.3333 5.33333 20.8473 5.33333 15.3333C5.33333 9.81933 10.1187 5.33333 16 5.33333ZM16 4C9.37267 4 4 9.074 4 15.3333C4 21.5927 9.37267 26.6667 16 26.6667C22.6273 26.6667 28 21.5927 28 15.3333C28 9.074 22.6273 4 16 4Z" fill="url(#paint3_linear_78_699)"/>
<path d="M16.442 9.30534L17.8 13.3107H22.1333C22.2326 13.3108 22.3293 13.3425 22.4092 13.4013C22.4892 13.4601 22.5484 13.5428 22.5781 13.6375C22.6079 13.7323 22.6066 13.834 22.5746 13.9279C22.5426 14.0219 22.4814 14.1032 22.4 14.16L18.9113 16.5927L20.254 20.5587C20.2857 20.6518 20.2872 20.7525 20.2583 20.8465C20.2294 20.9405 20.1715 21.023 20.0929 21.0821C20.0143 21.1412 19.9191 21.174 19.8207 21.1758C19.7224 21.1776 19.626 21.1483 19.5453 21.092L16 18.6207L12.4567 21.0913C12.376 21.1476 12.2796 21.1769 12.1813 21.1752C12.0829 21.1734 11.9877 21.1406 11.9091 21.0814C11.8305 21.0223 11.7726 20.9398 11.7437 20.8458C11.7148 20.7518 11.7163 20.6511 11.748 20.558L13.0907 16.592L9.6 14.16C9.5186 14.1032 9.45744 14.0219 9.4254 13.9279C9.39337 13.834 9.39213 13.7323 9.42187 13.6375C9.4516 13.5428 9.51076 13.4601 9.59076 13.4013C9.67075 13.3425 9.7674 13.3108 9.86667 13.3107H14.2L15.556 9.30534C15.5868 9.21221 15.6462 9.13118 15.7258 9.07375C15.8053 9.01631 15.9009 8.9854 15.999 8.9854C16.0971 8.9854 16.1927 9.01631 16.2722 9.07375C16.3518 9.13118 16.4112 9.21221 16.442 9.30534Z" fill="url(#paint4_linear_78_699)"/>
<defs>
<linearGradient id="paint0_linear_78_699" x1="4" y1="21.6667" x2="28" y2="21.6667" gradientUnits="userSpaceOnUse">
<stop stop-color="#CC6700"/>
<stop offset="0.116" stop-color="#CE7507"/>
<stop offset="0.351" stop-color="#D38C13"/>
<stop offset="0.5" stop-color="#D49417"/>
<stop offset="1" stop-color="#CC6700"/>
</linearGradient>
<linearGradient id="paint1_linear_78_699" x1="8.20533" y1="23.128" x2="23.7947" y2="7.53867" gradientUnits="userSpaceOnUse">
<stop stop-color="#E07000"/>
<stop offset="0.144" stop-color="#E38309"/>
<stop offset="0.362" stop-color="#E79A15"/>
<stop offset="0.5" stop-color="#E8A219"/>
<stop offset="1" stop-color="#E07000"/>
</linearGradient>
<linearGradient id="paint2_linear_78_699" x1="1.40246e-06" y1="10.3147" x2="0.666668" y2="10.3147" gradientUnits="userSpaceOnUse">
<stop stop-color="#CC6700"/>
<stop offset="0.116" stop-color="#CE7507"/>
<stop offset="0.351" stop-color="#D38C13"/>
<stop offset="0.5" stop-color="#D49417"/>
<stop offset="1" stop-color="#CC6700"/>
</linearGradient>
<linearGradient id="paint3_linear_78_699" x1="7.74733" y1="23.586" x2="24.2527" y2="7.08067" gradientUnits="userSpaceOnUse">
<stop stop-color="#F2AD00"/>
<stop offset="0.124" stop-color="#F6C43B"/>
<stop offset="0.249" stop-color="#FAD86E"/>
<stop offset="0.358" stop-color="#FDE794"/>
<stop offset="0.445" stop-color="#FEF0AB"/>
<stop offset="0.5" stop-color="#FFF3B3"/>
<stop offset="1" stop-color="#F2AD00"/>
</linearGradient>
<linearGradient id="paint4_linear_78_699" x1="11.4513" y1="20.63" x2="20.5487" y2="11.5327" gradientUnits="userSpaceOnUse">
<stop stop-color="#F2AD00"/>
<stop offset="0.145" stop-color="#F6C43B"/>
<stop offset="0.29" stop-color="#FAD86E"/>
<stop offset="0.416" stop-color="#FDE794"/>
<stop offset="0.517" stop-color="#FEF0AB"/>
<stop offset="0.581" stop-color="#FFF3B3"/>
<stop offset="1" stop-color="#F2AD00"/>
</linearGradient>
</defs>
</svg>
