<svg width="100" height="100" viewBox="0 0 100 100" fill="none" xmlns="http://www.w3.org/2000/svg">
<path d="M42.5 70.3125H57.5L62.5 82.8125H37.5L42.5 70.3125Z" fill="url(#paint0_linear_20_3019)"/>
<path d="M72.7938 57.8125H27.2063C18.2359 57.8125 10.9375 50.5141 10.9375 41.5437V39.7578C10.9375 33.3437 16.1562 28.125 22.5703 28.125H77.4281C83.8438 28.125 89.0625 33.3437 89.0625 39.7578V41.5437C89.0625 50.5141 81.7641 57.8125 72.7938 57.8125ZM22.5703 35.9375C20.4641 35.9375 18.75 37.6516 18.75 39.7578V41.5437C18.75 46.2062 22.5438 50 27.2063 50H72.7938C77.4563 50 81.25 46.2062 81.25 41.5437V39.7578C81.25 37.6516 79.5359 35.9375 77.4297 35.9375H22.5703Z" fill="url(#paint1_linear_20_3019)"/>
<path d="M35.9375 87.5H64.0625C65.7891 87.5 67.1875 86.1016 67.1875 84.375C67.1875 82.6484 65.7891 81.25 64.0625 81.25H35.9375C34.2109 81.25 32.8125 82.6484 32.8125 84.375C32.8125 86.1016 34.2109 87.5 35.9375 87.5Z" fill="url(#paint2_linear_20_3019)"/>
<path d="M26.5625 20.3125H73.4375V50C73.4375 58.6297 66.4422 65.625 57.8125 65.625L50 67.1875L42.1875 65.625C33.5578 65.625 26.5625 58.6297 26.5625 50V20.3125Z" fill="url(#paint3_linear_20_3019)"/>
<path d="M40.625 71.875H59.375C61.1016 71.875 62.5 70.4766 62.5 68.75C62.5 67.0234 61.1016 65.625 59.375 65.625H40.625C38.8984 65.625 37.5 67.0234 37.5 68.75C37.5 70.4766 38.8984 71.875 40.625 71.875Z" fill="url(#paint4_linear_20_3019)"/>
<path d="M25.7281 21.875H74.2719C76.4 21.875 78.125 20.15 78.125 18.0219V17.9156C78.125 15.7875 76.4 14.0625 74.2719 14.0625H25.7281C23.6 14.0625 21.875 15.7875 21.875 17.9156V18.0219C21.875 20.15 23.6 21.875 25.7281 21.875Z" fill="url(#paint5_linear_20_3019)"/>
<path d="M39.8438 21.875H26.5625V50C26.5625 53.5156 27.7344 56.7656 29.7031 59.375H55.4688C58.4891 59.375 60.9375 56.9266 60.9375 53.9062C60.9375 50.8859 58.4891 48.4375 55.4688 48.4375H39.8438C38.5469 48.4375 37.5 47.3906 37.5 46.0938C37.5 44.7969 38.5469 43.75 39.8438 43.75H53.125V35.9375H35.9375C34.2203 35.9375 32.8125 34.5312 32.8125 32.8125C32.8125 31.9531 33.1562 31.1719 33.7344 30.6094C34.2969 30.0297 35.0781 29.6875 35.9375 29.6875H39.625C41.5969 29.6875 43.4234 28.3297 43.7094 26.3781C43.7375 26.1844 43.7516 25.9938 43.7531 25.8063C43.7672 23.6328 42.0141 21.875 39.8438 21.875Z" fill="url(#paint6_linear_20_3019)"/>
<path d="M33.2989 34.0405C33.4851 34.5596 33.6292 35.0908 33.7312 35.6335L33.7765 35.865C33.8256 36.115 33.8741 36.3656 33.9219 36.6162L34.0246 37.1442C34.1145 37.6065 34.2044 38.0689 34.2937 38.5312C34.3842 38.998 34.4748 39.4648 34.5653 39.9316C34.668 40.4583 34.7707 40.9851 34.8721 41.5124L34.9192 41.7554L35.0098 42.2216C35.0761 42.5685 35.145 42.9147 35.2158 43.2604L35.2534 43.444C35.2866 43.6028 35.3197 43.7622 35.3529 43.9217C35.3975 44.1767 35.3975 44.1767 35.3975 44.5268C35.7304 44.2029 36.0371 43.8643 36.3381 43.511L36.4778 43.3471C36.7463 43.0314 37.0115 42.7132 37.2724 42.3912C37.5874 42.0035 37.912 41.626 38.2397 41.2497C38.6287 40.804 39.0101 40.3544 39.3825 39.8952C39.6529 39.5624 39.9245 39.232 40.1968 38.9011L40.3556 38.7085C40.7191 38.2678 41.0864 37.8316 41.4576 37.3974C41.7445 37.0607 42.0149 36.7138 42.277 36.3573L42.3943 36.2246H42.5691C42.6966 36.379 42.6966 36.379 42.8458 36.5971L43.0155 36.8419L43.1978 37.1098L43.3872 37.3853C43.5811 37.6678 43.775 37.9509 43.9682 38.2347L44.1397 38.4866C44.3553 38.8022 44.5708 39.1179 44.7857 39.4335C45.565 40.5782 46.3596 41.712 47.1548 42.8452C47.6407 43.5365 48.1221 44.2316 48.5985 44.9299C49.0532 45.5956 49.5142 46.2563 49.9772 46.9163L50.1481 47.1612L50.2999 47.3774C50.4427 47.5891 50.5805 47.7976 50.7023 48.0221V48.2842C48.3141 48.5533 48.3141 48.5533 47.3792 48.2842C46.8946 47.9813 46.6503 47.5795 46.3774 47.0891C46.283 46.9048 46.1925 46.7186 46.1051 46.5318C45.9297 46.1715 45.7072 45.859 45.4712 45.537C45.3947 45.426 45.3182 45.3144 45.2417 45.2028L45.1301 45.0395L44.9037 44.7099C44.4107 43.9912 43.9153 43.2744 43.4159 42.5602L43.2642 42.3421C42.9536 41.8989 42.6348 41.4614 42.3063 41.031C41.9843 41.1802 41.8274 41.339 41.6068 41.6208C41.2924 42.0156 40.9704 42.4033 40.6394 42.7846C40.2887 43.1915 39.9449 43.6028 39.6114 44.0243C38.9744 44.8259 38.3284 45.6199 37.662 46.3966C37.4739 46.6153 37.2915 46.8391 37.1148 47.0674C36.759 47.5278 36.4504 47.8652 35.9262 48.1266C35.5378 48.2791 35.2043 48.3173 34.7853 48.2842C34.2956 48.1643 33.8562 48.0042 33.4793 47.6618C32.9137 47.0056 32.7747 46.1396 32.6146 45.3131L32.5476 44.9783C32.4877 44.678 32.4284 44.3783 32.3697 44.0779C32.3079 43.7616 32.2447 43.4459 32.1822 43.1303C32.077 42.6004 31.9724 42.0704 31.8685 41.5405C31.7486 40.9289 31.6275 40.3187 31.5063 39.7078C31.3768 39.0548 31.2474 38.4011 31.1186 37.7481C31.0816 37.5613 31.0446 37.3738 31.0076 37.1869C30.9381 36.8375 30.8692 36.4874 30.801 36.1379L30.7391 35.8267C30.6288 35.2617 30.5446 34.7025 30.5 34.1279C30.8845 34.1132 31.2691 34.0986 31.6536 34.0839L31.9839 34.0711L32.3021 34.0597L32.5948 34.0482C32.8301 34.0412 33.0642 34.0386 33.2989 34.0405Z" fill="white"/>
<path d="M65.5421 40.0394C66.5528 40.0318 67.4845 40.0663 68.39 40.5726C69.1138 41.0451 69.6944 41.5795 70.1172 42.3422C70.4685 43.1386 70.5572 43.9257 70.4673 44.7891C70.3015 45.5868 70.0157 46.306 69.4947 46.9354C68.8979 47.5762 68.2532 47.9331 67.4338 48.2245C66.7241 48.3711 66.0256 48.3835 65.3038 48.381L64.9939 48.3819C64.6572 48.3812 64.3203 48.3814 63.9842 48.3801H63.2813C62.7298 48.3795 62.1777 48.3785 61.6262 48.3779C60.9975 48.3766 60.3686 48.3761 59.7399 48.3761C58.4473 48.3748 57.1546 48.3736 55.862 48.3717C55.9767 48.0197 56.1029 47.697 56.2744 47.3686L56.4128 47.1038L56.5565 46.8315L56.6984 46.5565C56.9617 46.056 56.9617 46.056 57.0861 45.8373L57.171 45.6516L57.3491 45.488C57.6386 45.4332 57.9274 45.4415 58.2213 45.4447L58.4932 45.4425C58.6876 45.4419 58.8827 45.4418 59.0772 45.4425C59.3858 45.4438 59.6938 45.4424 60.0025 45.4412C60.5464 45.4386 61.0898 45.4383 61.6337 45.439C62.5029 45.439 63.3722 45.4375 64.242 45.4336C64.5455 45.433 64.849 45.4339 65.1531 45.4345C65.3393 45.4339 65.5261 45.4336 65.7123 45.4323L65.9683 45.435C66.3304 45.4318 66.5875 45.4125 66.928 45.2811C67.1561 45.1486 67.156 45.1484 67.302 44.9195C67.4837 44.5382 67.5228 44.2493 67.4934 43.8271C67.378 43.5671 67.2485 43.4081 67.0483 43.206C66.7966 43.0168 66.7964 43.0169 66.4585 42.9965C66.3259 42.9939 66.1933 42.9941 66.0607 42.9947L65.8405 42.9925C65.6008 42.9899 65.361 42.9907 65.1213 42.9907C64.9542 42.9895 64.7879 42.9887 64.6208 42.9867C64.1815 42.9836 63.7417 42.9825 63.303 42.9819C62.5997 42.98 61.8971 42.9749 61.1939 42.9704C60.949 42.9691 60.7033 42.9684 60.4578 42.9677L60.0056 42.966L59.7995 42.9664C59.4674 42.9645 59.1586 42.9468 58.8354 42.8665C58.8902 42.4584 59.0594 42.1195 59.2456 41.7573L59.3398 41.5712C59.9768 40.3277 59.9769 40.3276 60.2345 40.0699C60.436 40.0604 60.6369 40.0564 60.8384 40.0558L61.0298 40.0549C61.2396 40.0536 61.4503 40.0529 61.6607 40.0522L62.0997 40.0509C62.407 40.0496 62.7152 40.0491 63.0232 40.0491C63.4154 40.0485 63.8078 40.0464 64.2 40.0438C64.5028 40.0419 64.8065 40.0418 65.1093 40.0412C65.2534 40.0412 65.3981 40.0407 65.5421 40.0394Z" fill="white"/>
<path d="M60.0365 34.0086L60.3725 34.0082C60.6753 34.0082 60.9781 34.0138 61.2809 34.0214C61.5979 34.0278 61.9149 34.0285 62.2318 34.0298C62.8312 34.033 63.4306 34.0417 64.0307 34.0519C64.7136 34.064 65.3967 34.0698 66.0797 34.0749C67.4839 34.0858 68.8881 34.1044 70.2922 34.128C70.1029 34.8007 70.1032 34.8008 69.9629 35.0775L69.8754 35.2504L69.7834 35.4277L69.6897 35.6125C69.5998 35.7878 69.5085 35.9625 69.4174 36.1372L69.2803 36.4002C69.0732 36.7857 69.0731 36.7859 68.9802 36.9241C68.6906 37.0689 68.3676 37.0162 68.05 37.0099L67.302 36.9997C66.7498 36.9927 66.1976 36.991 65.646 36.9891C65.1608 36.9872 64.6755 36.983 64.1903 36.9741C63.7209 36.9658 63.252 36.9626 62.7827 36.9639C62.6042 36.9639 62.4258 36.9604 62.2473 36.9559C61.4458 36.9228 61.4456 36.9232 60.6722 37.0992C60.2896 37.4174 60.1414 37.8667 59.9724 38.322C59.8729 38.5158 59.7715 38.7086 59.6669 38.8993C59.5681 39.0912 59.4694 39.2832 59.3712 39.4744L58.8942 40.3993C58.4025 41.3507 57.9011 42.2958 57.3814 43.2325C57.0677 43.7987 56.7667 44.368 56.4804 44.9482C56.2279 45.4565 55.9711 45.9623 55.709 46.4655L55.587 46.7033C55.3542 47.1497 55.135 47.5687 54.7378 47.892C54.3392 48.1394 53.9712 48.3207 53.5013 48.3717C52.9713 48.3883 52.5393 48.2344 52.0623 48.0163C51.4477 47.5507 51.0438 46.8023 50.6256 46.1653C50.5031 45.9804 50.3811 45.7958 50.2586 45.6109L50.1583 45.4597C49.6826 44.7436 49.1999 44.0319 48.7184 43.3196L48.5734 43.1061C47.8873 42.0916 47.1996 41.0787 46.5045 40.0699L45.8927 39.1805C45.7039 38.9056 45.5138 38.6309 45.3237 38.3573C44.8321 37.6469 44.3475 36.9311 43.8666 36.2137C43.7966 36.1098 43.7272 36.0059 43.6571 35.902C43.2681 35.3243 42.8925 34.7452 42.5692 34.128L42.6562 34.0404C42.8787 34.0315 43.0995 34.0279 43.322 34.0285H43.5249C43.6671 34.0285 43.8094 34.0283 43.9515 34.0289C44.1683 34.0296 44.3859 34.0291 44.6027 34.0285H45.2128C45.8006 34.031 45.8009 34.0311 46.0673 34.128C46.1885 34.2574 46.1889 34.2574 46.2998 34.4277L46.4289 34.6213L46.566 34.8344L46.7127 35.0572C46.8721 35.2982 47.0298 35.5404 47.188 35.7827C47.2977 35.9497 47.4081 36.1171 47.5178 36.2835C47.6861 36.5392 47.8545 36.7942 48.0222 37.0492C48.5464 37.8457 49.0789 38.6366 49.6145 39.4254L49.8515 39.7755C50.486 40.7116 51.1271 41.6426 51.7692 42.573L52.1052 43.0597C52.2939 43.3332 52.4802 43.6079 52.6613 43.8859L52.8501 44.1768L53.0145 44.4337L53.1511 44.614H53.3258C53.9494 43.4554 54.5732 42.2973 55.179 41.1291C55.5042 40.5023 55.8378 39.8799 56.1789 39.2614C56.7254 38.2723 57.2389 37.2659 57.751 36.2583C57.7834 36.1946 57.816 36.131 57.8491 36.066C57.909 35.9481 57.9689 35.8301 58.0281 35.7128C58.0842 35.6025 58.1424 35.4934 58.2023 35.3843C58.282 35.2307 58.3558 35.0743 58.4247 34.9149C58.5682 34.619 58.7074 34.3767 58.9229 34.128C59.294 33.9788 59.6405 33.9946 60.0365 34.0086Z" fill="white"/>
<defs>
<linearGradient id="paint0_linear_20_3019" x1="50" y1="83.9312" x2="50" y2="71.3547" gradientUnits="userSpaceOnUse">
<stop stop-color="#FD9557"/>
<stop offset="1" stop-color="#FDB45B"/>
</linearGradient>
<linearGradient id="paint1_linear_20_3019" x1="50" y1="83.5578" x2="50" y2="22.7234" gradientUnits="userSpaceOnUse">
<stop stop-color="#FD9557"/>
<stop offset="1" stop-color="#FDB45B"/>
</linearGradient>
<linearGradient id="paint2_linear_20_3019" x1="50" y1="87.0688" x2="50" y2="77.35" gradientUnits="userSpaceOnUse">
<stop stop-color="#FCA853"/>
<stop offset="0.612" stop-color="#FDCB49"/>
<stop offset="1" stop-color="#FDDC44"/>
</linearGradient>
<linearGradient id="paint3_linear_20_3019" x1="50" y1="78.2187" x2="50" y2="-15.8656" gradientUnits="userSpaceOnUse">
<stop stop-color="#FCA853"/>
<stop offset="0.612" stop-color="#FDCB49"/>
<stop offset="1" stop-color="#FDDC44"/>
</linearGradient>
<linearGradient id="paint4_linear_20_3019" x1="50" y1="71.4438" x2="50" y2="61.725" gradientUnits="userSpaceOnUse">
<stop stop-color="#FCA853"/>
<stop offset="0.612" stop-color="#FDCB49"/>
<stop offset="1" stop-color="#FDDC44"/>
</linearGradient>
<linearGradient id="paint5_linear_20_3019" x1="50" y1="21.3359" x2="50" y2="9.1875" gradientUnits="userSpaceOnUse">
<stop stop-color="#FCA853"/>
<stop offset="0.612" stop-color="#FDCB49"/>
<stop offset="1" stop-color="#FDDC44"/>
</linearGradient>
<linearGradient id="paint6_linear_20_3019" x1="43.75" y1="70.6891" x2="43.75" y2="-6.56563" gradientUnits="userSpaceOnUse">
<stop stop-color="#FDB265"/>
<stop offset="0.612" stop-color="#FFD15D"/>
<stop offset="1" stop-color="#FDE058"/>
</linearGradient>
</defs>
</svg>
