<svg width="48" height="48" viewBox="0 0 48 48" fill="none" xmlns="http://www.w3.org/2000/svg">
<path d="M42.1436 9.90019L27.0434 0.842719C26.107 0.280688 25.0533 0 24.001 0C22.9474 0 21.8933 0.280688 20.9573 0.842719L5.85704 9.90019C4.07467 10.9695 2.98389 12.8955 2.98389 14.9737V33.0263C2.98389 35.1046 4.07467 37.0305 5.85704 38.0998L20.9573 47.1573C21.8933 47.7187 22.9474 48 24.001 48C25.0534 48 26.107 47.7187 27.0434 47.1573L42.1436 38.0998C43.926 37.0305 45.0161 35.1046 45.0161 33.0263V14.9737C45.0161 12.8955 43.926 10.9695 42.1436 9.90019ZM23.4937 46.1937C22.9284 46.1239 22.3752 45.9388 21.8699 45.6361L6.7697 36.5786C5.52226 35.8297 4.7582 34.4815 4.7582 33.0263V14.9737C4.7582 14.4091 4.87407 13.8616 5.08801 13.3581L23.4938 24.3981V46.1937H23.4937ZM5.59398 12.4794C5.90936 12.0609 6.30582 11.6996 6.7697 11.4215L21.8699 2.364C22.5257 1.97062 23.2621 1.77422 24.001 1.77422C24.7387 1.77422 25.4751 1.97062 26.1309 2.364L41.2311 11.4215C41.6943 11.6996 42.0921 12.0609 42.4067 12.4794L24.001 23.5201L5.59398 12.4794ZM43.2426 33.0263C43.2426 34.4815 42.4785 35.8297 41.2311 36.5786L26.1309 45.6361C25.6248 45.9388 25.0722 46.1239 24.507 46.1937V24.3981L42.9128 13.3581C43.1268 13.8615 43.2426 14.4091 43.2426 14.9737V33.0263Z" fill="white"/>
<path d="M15.0196 11.2383C14.0982 10.556 12.5801 10.5385 11.6291 11.1999C10.6781 11.8614 10.6542 12.9502 11.5757 13.6324C12.4971 14.3146 14.0153 14.3317 14.9656 13.6708C15.9172 13.0093 15.9411 11.9205 15.0196 11.2383Z" fill="white"/>
<path d="M26.1712 4.56434C25.2497 3.88212 23.7316 3.86515 22.7801 4.52656C21.8297 5.1874 21.8057 6.27631 22.7272 6.95853C23.6486 7.6414 25.1667 7.65772 26.1171 6.99753C27.0686 6.33547 27.0926 5.24656 26.1712 4.56434Z" fill="white"/>
<path d="M20.6803 7.68977C19.7584 7.00821 18.2402 6.99058 17.2892 7.65199C16.3376 8.31283 16.3136 9.40174 17.2357 10.084C18.1571 10.7668 19.6752 10.7831 20.6262 10.123C21.5767 9.4609 21.6011 8.37208 20.6803 7.68977Z" fill="white"/>
<path d="M25.0722 17.3207C24.1509 16.6385 22.6333 16.6214 21.6823 17.2823C20.7308 17.9438 20.7069 19.0327 21.6282 19.7148C22.5496 20.3977 24.0677 20.4141 25.0194 19.7532C25.9697 19.0917 25.9936 18.0029 25.0722 17.3207Z" fill="white"/>
<path d="M36.2236 10.6467C35.3022 9.965 33.7841 9.94747 32.8338 10.6089C31.8821 11.2697 31.8582 12.3586 32.7797 13.0408C33.7011 13.7237 35.2191 13.74 36.1708 13.0798C37.1212 12.4178 37.1451 11.329 36.2236 10.6467Z" fill="white"/>
<path d="M30.7329 13.7722C29.8114 13.0906 28.2933 13.073 27.3417 13.7344C26.3914 14.3952 26.3675 15.4841 27.2889 16.1664C28.2102 16.8492 29.7283 16.8662 30.6787 16.2054C31.6304 15.5433 31.6543 14.4551 30.7329 13.7722Z" fill="white"/>
<path d="M8.37085 23.2784C9.41691 23.8487 10.264 23.4623 10.264 22.4168C10.264 21.3708 9.41691 20.0611 8.37085 19.4909C7.32488 18.9206 6.47644 19.3065 6.47644 20.3525C6.47635 21.3979 7.32478 22.7082 8.37085 23.2784Z" fill="white"/>
<path d="M18.9432 29.041C19.9893 29.6112 20.8377 29.2254 20.8377 28.18C20.8377 27.134 19.9893 25.8236 18.9432 25.2534C17.8979 24.6838 17.05 25.0696 17.05 26.1157C17.05 27.1611 17.8979 28.4708 18.9432 29.041Z" fill="white"/>
<path d="M8.37085 33.8514C9.41691 34.4211 10.264 34.0358 10.264 32.9899C10.264 31.9438 9.41691 30.634 8.37085 30.0639C7.32488 29.4936 6.47644 29.8794 6.47644 30.9255C6.47635 31.9715 7.32478 33.2812 8.37085 33.8514Z" fill="white"/>
<path d="M18.9432 39.614C19.9893 40.1842 20.8377 39.7984 20.8377 38.7524C20.8377 37.707 19.9893 36.3966 18.9432 35.8264C17.8979 35.2568 17.05 35.6426 17.05 36.688C17.05 37.7341 17.8979 39.0438 18.9432 39.614Z" fill="white"/>
<path d="M13.657 31.446C14.7031 32.0162 15.5509 31.6304 15.5509 30.5843C15.5509 29.5389 14.703 28.2286 13.657 27.659C12.611 27.0888 11.7632 27.4746 11.7632 28.5201C11.7632 29.5659 12.611 30.8757 13.657 31.446Z" fill="white"/>
<path d="M39.2195 19.4908C38.1734 20.061 37.325 21.3708 37.325 22.4167C37.325 23.4621 38.1734 23.8486 39.2195 23.2783C40.2642 22.7081 41.1127 21.3978 41.1127 20.3523C41.1127 19.3064 40.2643 18.9205 39.2195 19.4908Z" fill="white"/>
<path d="M28.6458 35.8265C27.5997 36.3966 26.7526 37.707 26.7526 38.7524C26.7526 39.7985 27.5997 40.1842 28.6458 39.6141C29.6918 39.0439 30.539 37.7341 30.539 36.688C30.539 35.6426 29.6919 35.2569 28.6458 35.8265Z" fill="white"/>
<path d="M33.9326 27.6589C32.8866 28.2285 32.0382 29.5388 32.0382 30.5842C32.0382 31.6303 32.8867 32.0161 33.9326 31.4459C34.9787 30.8756 35.8258 29.5659 35.8258 28.5199C35.8258 27.4745 34.9787 27.0888 33.9326 27.6589Z" fill="white"/>
</svg>
