<svg width="48" height="48" viewBox="0 0 48 48" fill="none" xmlns="http://www.w3.org/2000/svg">
<g clip-path="url(#clip0_20_2151)">
<path d="M31.9635 11.4258C31.9771 11.3674 31.9995 11.2626 31.9995 11.2002V6.40027C31.9995 5.95787 31.6419 5.60028 31.1995 5.60028C30.7571 5.60028 30.3995 5.95787 30.3995 6.40027V9.99781C28.6355 8.72423 26.478 8.00024 24.1436 8.00024C24.1204 8.00024 24.0964 8.00024 24.074 8.00024C22.3148 8.00024 20.6613 8.42023 19.1997 9.18342V5.60028C19.1997 5.15789 18.8413 4.80029 18.3997 4.80029C17.9581 4.80029 17.5997 5.15789 17.5997 5.60028V10.213C15.0462 12.1898 13.4006 15.3801 13.423 18.8513C13.4606 24.7384 18.2621 29.5999 24.1412 29.5999C24.1644 29.5999 24.1884 29.5999 24.2108 29.5999C30.1219 29.5999 34.9002 24.624 34.8618 18.7129C34.8442 15.9129 33.7402 13.3258 31.9635 11.4258ZM24.2004 27.9999C24.1804 27.9999 24.1612 27.9999 24.1412 27.9999C19.1397 27.9999 15.055 23.8672 15.023 18.8585C14.9902 13.8305 19.0557 9.60021 24.0836 9.60021C24.1036 9.60021 24.1228 9.60021 24.1428 9.60021C29.1443 9.60021 33.2291 13.7329 33.2611 18.7417C33.2939 23.7696 29.2291 27.9999 24.2004 27.9999Z" fill="white"/>
<path d="M18.3997 0.000427246C17.9581 0.000427246 17.5997 0.358021 17.5997 0.800414V2.40039C17.5997 2.84278 17.9581 3.20037 18.3997 3.20037C18.8413 3.20037 19.1997 2.84278 19.1997 2.40039V0.800414C19.1997 0.358021 18.8413 0.000427246 18.3997 0.000427246Z" fill="white"/>
<path d="M31.1995 0.800415C30.7571 0.800415 30.3995 1.15801 30.3995 1.6004V3.20038C30.3995 3.64277 30.7571 4.00036 31.1995 4.00036C31.6419 4.00036 31.9995 3.64277 31.9995 3.20038V1.6004C31.9995 1.15801 31.6419 0.800415 31.1995 0.800415Z" fill="white"/>
<path d="M9.59985 18.4001C9.15826 18.4001 8.79987 18.7577 8.79987 19.2001V25.6C8.79987 26.0424 9.15826 26.4 9.59985 26.4C10.0414 26.4 10.3998 26.0424 10.3998 25.6V19.2001C10.3998 18.7577 10.0414 18.4001 9.59985 18.4001Z" fill="white"/>
<path d="M9.59985 13.6002C9.15826 13.6002 8.79987 13.9578 8.79987 14.4001V16.0001C8.79987 16.4425 9.15826 16.8001 9.59985 16.8001C10.0414 16.8001 10.3998 16.4425 10.3998 16.0001V14.4001C10.3998 13.9578 10.0414 13.6002 9.59985 13.6002Z" fill="white"/>
<path d="M39.9993 11.2002C39.5569 11.2002 39.1993 11.5578 39.1993 12.0002V18.4001C39.1993 18.8425 39.5569 19.2001 39.9993 19.2001C40.4417 19.2001 40.7993 18.8425 40.7993 18.4001V12.0002C40.7993 11.5578 40.4417 11.2002 39.9993 11.2002Z" fill="white"/>
<path d="M39.9993 6.40027C39.5569 6.40027 39.1993 6.75786 39.1993 7.20026V8.80023C39.1993 9.24262 39.5569 9.60022 39.9993 9.60022C40.4417 9.60022 40.7993 9.24262 40.7993 8.80023V7.20026C40.7993 6.75786 40.4417 6.40027 39.9993 6.40027Z" fill="white"/>
<path d="M27.1892 20.764L27.1836 19.9648C27.1796 19.3233 26.9268 18.7225 26.47 18.2721C26.0132 17.8225 25.3844 17.5633 24.7684 17.5849L23.1684 17.6001C23.1668 17.6001 23.1652 17.6001 23.1636 17.6001C22.7252 17.6001 22.366 17.2393 22.3636 16.8001L22.3588 15.9985C22.3564 15.5569 22.7124 15.1945 23.154 15.1921L23.9348 15.1865C23.9604 15.1881 23.9828 15.2001 24.01 15.2001C24.0116 15.2001 24.0132 15.2001 24.0148 15.2001C24.042 15.2001 24.0652 15.1865 24.0916 15.1841L26.3524 15.1697C26.7948 15.1665 27.1508 14.8217 27.1476 14.3801C27.1444 13.9394 26.7876 13.6002 26.3476 13.6002C26.346 13.6002 26.3444 13.6002 26.3428 13.6002L24.8044 13.5946L24.7996 12.8026C24.7972 12.3626 24.4388 12.0002 23.9996 12.0002C23.998 12.0002 23.9964 12.0002 23.9948 12.0002C23.5532 12.0034 23.1972 12.369 23.1996 12.8106L23.2044 13.6002H23.1436C21.8204 13.6002 20.7509 14.6865 20.7589 16.0105L20.7637 16.8129C20.7725 18.1313 21.8476 19.2001 23.1644 19.2001C23.1692 19.2001 23.1748 19.2001 23.1796 19.2001H24.7796C24.7812 19.2001 24.7828 19.2001 24.7844 19.2001C24.9956 19.2001 25.1948 19.2721 25.3468 19.4201C25.498 19.5705 25.5828 19.7657 25.5844 19.9801L25.59 20.7768C25.5932 21.2184 25.2364 21.5784 24.7948 21.5808L21.5949 21.6008C21.1533 21.604 20.7973 21.964 20.7997 22.4056C20.8021 22.8456 21.1605 23.2 21.5997 23.2C21.6013 23.2 21.6029 23.2 21.6045 23.2L23.2044 23.1896L23.2092 24.0056C23.2116 24.4456 23.57 24.8 24.0092 24.8C24.0108 24.8 24.0124 24.8 24.014 24.8C24.4556 24.7968 24.8124 24.4368 24.8092 23.9944L24.8044 23.1792C26.1276 23.1704 27.1972 22.088 27.1892 20.764Z" fill="white"/>
<path d="M18.3997 20.0001C18.8415 20.0001 19.1997 19.6419 19.1997 19.2001C19.1997 18.7583 18.8415 18.4001 18.3997 18.4001C17.9579 18.4001 17.5997 18.7583 17.5997 19.2001C17.5997 19.6419 17.9579 20.0001 18.3997 20.0001Z" fill="white"/>
<path d="M29.5995 20.0001C30.0413 20.0001 30.3995 19.6419 30.3995 19.2001C30.3995 18.7583 30.0413 18.4001 29.5995 18.4001C29.1577 18.4001 28.7995 18.7583 28.7995 19.2001C28.7995 19.6419 29.1577 20.0001 29.5995 20.0001Z" fill="white"/>
<path d="M47.1992 31.1999H38.3994C37.3578 31.1999 36.4778 31.8711 36.1466 32.7999H32.1419C31.7091 32.7999 31.3611 33.1447 31.3467 33.5742L24.6724 32.0599C24.1908 31.9511 23.6908 31.9887 23.2308 32.1719L16.9669 34.6566C16.1581 34.9774 15.5653 35.6286 15.3213 36.4158L3.08875 32.8279C2.34316 32.6111 1.56077 32.7495 0.943184 33.2119C0.343994 33.6614 0 34.343 0 35.083V36.8182C0 37.6118 0.403193 38.3462 1.07758 38.7822L9.96463 44.5333C10.043 44.5837 10.1302 44.6205 10.2214 44.6413L23.4532 47.6628C23.6324 47.7044 23.8164 47.7244 23.9996 47.7244C24.1836 47.7244 24.3668 47.7044 24.546 47.6628L31.5099 46.0652C31.6547 46.2628 31.8779 46.3996 32.1427 46.3996H36.1474C36.4786 47.3284 37.3586 47.9996 38.4002 47.9996H47.2C47.6424 47.9996 48 47.642 48 47.1996V31.9999C47.9992 31.5575 47.6416 31.1999 47.1992 31.1999ZM31.1491 44.5069L24.1876 46.1036C24.0652 46.1324 23.9348 46.1324 23.8108 46.1036L10.7158 43.1133L1.94637 37.4382C1.72957 37.2974 1.59997 37.0662 1.59997 36.8174V35.0822C1.59997 34.7654 1.78877 34.5774 1.90157 34.4934C2.11276 34.3358 2.37996 34.2862 2.63756 34.3638L15.3389 38.0942C15.7117 39.1966 16.7781 39.9997 18.0317 39.9997H23.9996C24.4412 39.9997 24.7996 39.6421 24.7996 39.1998C24.7996 38.7574 24.4412 38.3998 23.9996 38.3998H18.0317C17.3525 38.3998 16.7997 37.8742 16.7997 37.2318C16.7997 36.7566 17.0973 36.3302 17.5581 36.147L23.822 33.6606C23.9804 33.5975 24.1532 33.5839 24.3196 33.6214L31.1963 35.1814L31.1491 44.5069ZM35.9994 44.7997H32.7994V34.3998H35.9994V44.7997ZM46.3992 46.3996H38.3994C37.9578 46.3996 37.5994 46.0412 37.5994 45.5996V33.5998C37.5994 33.1583 37.9578 32.7999 38.3994 32.7999H46.3992V46.3996Z" fill="white"/>
<path d="M43.3425 43.1997H40.9425C40.5001 43.1997 40.1425 43.5573 40.1425 43.9997C40.1425 44.4421 40.5001 44.7997 40.9425 44.7997H43.3425C43.7849 44.7997 44.1425 44.4421 44.1425 43.9997C44.1425 43.5573 43.7849 43.1997 43.3425 43.1997Z" fill="white"/>
</g>
<defs>
<clipPath id="clip0_20_2151">
<rect width="48" height="48" fill="white"/>
</clipPath>
</defs>
</svg>
