<svg width="32" height="32" viewBox="0 0 32 32" fill="none" xmlns="http://www.w3.org/2000/svg">
<path d="M29.3333 16C29.3333 23.4234 23.2867 29.3334 16 29.3334C8.716 29.3334 2.66667 23.4234 2.66667 16C2.66667 8.57669 8.57667 2.66669 16 2.66669C23.4233 2.66669 29.3333 8.57669 29.3333 16Z" fill="#2196F3"/>
<path d="M15.4547 21.732C14.6353 21.458 13.8187 21.458 13.1367 20.776C12.9993 20.5047 12.9993 20.2307 12.8653 19.9594C12.5913 19.6854 11.9093 19.5507 11.5007 19.414H8.774C8.36334 19.2774 8.092 18.732 7.818 18.3234C7.818 18.1867 7.818 17.9127 7.54667 17.9127C7.27267 17.778 7.00134 18.0494 6.72734 17.9127C6.59267 17.778 6.59267 17.6414 6.59267 17.504C6.59267 17.0954 6.864 16.6847 7.138 16.4134C7.54667 16.1394 7.95467 16.55 8.36334 16.55C8.5 16.55 8.69334 16.3347 8.83 16.4687C9.23867 16.6054 9.37534 17.1507 9.37534 17.562V17.8334C9.37534 17.97 9.65534 17.972 9.792 17.972C9.92667 17.29 9.99467 16.6174 10.0633 15.9274C10.1447 15.112 10.5467 14.5027 11.2267 14.2314C11.5007 14.0947 11.6373 14.368 11.9087 14.2314C12.728 13.9574 15.0333 12.9027 14.6247 11.812C14.3507 10.856 13.5073 9.92069 12.4167 10.0554C12.1427 10.192 10.2727 11.7787 9.864 11.7787C9.182 11.642 9.182 10.688 9.31867 10.2774C9.45534 9.73203 10.6807 7.95936 11.5 8.2327C11.6373 8.37003 12.9247 8.6667 13.3333 8.6667C13.47 8.6667 13.6073 8.6667 13.742 8.53003C13.8787 8.39269 13.8787 8.39269 13.8787 8.25603C13.8787 7.84736 12.4087 6.96803 12 6.83336C10.638 6.42269 8.36267 6.86803 7.272 7.8247C7.18134 7.90403 7.08067 7.98536 6.97467 8.06736C5.136 10.162 4.01667 12.9067 4.00267 15.9427C4.05934 16.136 4.144 16.3347 4.274 16.55C4.68267 17.3694 5.49934 18.186 6.31867 18.7314C6.864 19.14 7.95467 19.14 8.5 19.822C8.90867 20.37 8.774 21.0494 8.774 21.732C8.774 22.5487 9.31934 23.2314 9.59067 23.9134C9.72734 24.322 9.86467 24.8674 10.0013 25.278C10.0013 25.4127 10.136 26.232 10.136 26.3687C10.1487 26.408 10.162 26.442 10.1753 26.48C10.874 26.8694 11.6127 27.1934 12.3853 27.4387C12.4527 27.4054 12.5207 27.3707 12.5913 27.3334C12.728 27.3334 13.2733 26.64 13.2733 26.5054C13.682 26.0947 13.9553 25.5494 14.364 25.278C14.6353 25.1414 14.9093 25.004 15.1807 24.73C15.4547 24.4587 15.5913 23.9134 15.726 23.5047C15.8627 23.2307 16 22.6854 15.8627 22.2774C15.8633 22.0034 15.726 21.8687 15.4547 21.732ZM15.9133 4.00403C15.7547 4.00536 15.6007 4.02003 15.4433 4.02736C15.116 4.08269 14.7893 4.22803 14.688 4.52003C14.552 5.1707 15.094 5.04003 15.6353 5.1707C15.6353 5.1707 15.7713 6.21136 15.7713 6.34203C15.9073 6.99269 15.4993 7.38269 15.4993 8.03136C15.4993 8.42336 15.4993 9.07403 15.7713 9.33336H15.9073C16.0433 9.33336 16.1767 9.2027 16.4493 9.0747C16.8553 8.81336 17.2633 8.42403 17.6693 8.1627C18.0753 7.90403 18.4807 7.51203 18.7527 7.25269C19.1587 6.99136 19.4307 6.47136 19.5667 6.08136C19.7 5.82003 20.1087 5.30003 19.9727 4.91003C19.8367 4.64869 19.1587 4.52069 18.8893 4.39003C18.1047 4.20136 17.3913 4.08469 16.648 4.03269C16.5533 4.02803 16.4587 4.02136 16.3633 4.01869C16.2153 4.01136 16.0653 4.00603 15.9133 4.00403ZM28 16C28 12.2054 26.2807 8.85269 23.5733 6.66203C23.4813 6.6847 23.3907 6.71336 23.302 6.75269C22.8933 6.88936 21.8273 8.8587 21.554 9.2667C21.4173 9.40336 21.2827 9.67536 21.4173 9.81203C21.4173 9.9487 21.554 9.9487 21.6913 9.9487C21.9627 10.0854 21.9993 10.142 22.2733 10.2767C22.41 10.2767 22.5447 10.4134 22.41 10.5507C22.41 10.5507 22.41 10.6874 22.2733 10.6874C21.5913 11.3694 20.9087 11.9147 20.2287 12.5947C20.0913 12.7327 20 13.0067 20 13.1407C20 13.2774 20.0913 13.2774 20.0913 13.4147C20.0913 13.552 19.9547 13.5514 19.8173 13.686C19.546 13.8227 19.272 13.96 19.1353 14.0967C19.0007 14.368 19.1353 14.7787 19.0007 15.0507C18.8633 15.7327 18.4527 16.278 18.1813 16.9607C17.9073 17.3694 17.6627 17.7774 17.3887 18.188C17.3887 18.7334 17.252 19.142 17.5253 19.55C18.2073 20.506 19.5733 19.5914 20.5273 19.9994C20.7987 20.136 21.032 20.1614 21.2093 20.408C21.548 20.878 21.5893 21.8687 21.7267 22.2794C21.8613 22.8247 21.998 23.37 22.272 23.9154C22.4087 24.5974 22.6807 25.28 22.8173 25.8227C22.824 25.8314 22.8313 25.8367 22.8387 25.8454C25.9427 23.6867 28 20.1034 28 16Z" fill="#CDDC39"/>
</svg>
