<svg width="32" height="32" viewBox="0 0 32 32" fill="none" xmlns="http://www.w3.org/2000/svg">
<path d="M28 23.3333C28 28.6666 22.6 28.6666 16 28.6666C9.4 28.6666 4 28.6666 4 23.3333C4 18 9.4 11.3333 16 11.3333C22.6 11.3333 28 18 28 23.3333Z" fill="#43A047"/>
<path d="M20 5.73335C18.7333 7.13335 19.3333 2.80002 16.6667 5.73335C15.4 7.13335 16 2.80002 13.3333 5.73335C12.2 7.00002 12.5333 3.66669 10.7333 5.00002L12.6667 12H19.3333L21.3333 4.66669C21 4.80002 20.6 5.06669 20 5.73335Z" fill="#43A047"/>
<path d="M17 22.4666C17 22.1333 16.9333 21.8666 16.7333 21.7333C16.5333 21.5333 16.2667 21.4 15.8 21.2C15.4 21.0666 15 20.8666 14.6667 20.7333C14.3333 20.6 14.0667 20.4 13.8667 20.2C13.6667 20 13.4667 19.7333 13.3333 19.4666C13.2 19.2 13.1333 18.8666 13.1333 18.4666C13.1333 17.8 13.3333 17.2666 13.7333 16.8666C14.1333 16.4666 14.7333 16.2 15.4 16.1333V14.8666H16.3333V16.1333C17 16.2 17.5333 16.5333 17.9333 17C18.3333 17.4666 18.5333 18.0666 18.5333 18.8666H16.8667C16.8667 18.4 16.8 18.0666 16.6 17.8C16.4 17.5333 16.1333 17.4666 15.8 17.4666C15.4667 17.4666 15.2 17.5333 15.0667 17.7333C14.8667 17.9333 14.8 18.1333 14.8 18.4666C14.8 18.7333 14.8667 19 15.0667 19.2C15.2667 19.4 15.5333 19.5333 16 19.7333C16.4667 19.9333 16.8667 20.0666 17.1333 20.2666C17.4667 20.4 17.6667 20.6 17.8667 20.8C18.0667 21 18.2 21.2666 18.3333 21.5333C18.4667 21.8 18.4667 22.1333 18.4667 22.4666C18.4667 23.1333 18.2667 23.6666 17.8667 24.0666C17.4667 24.4666 16.8667 24.7333 16.1333 24.8V26H15.2V24.8666C14.4 24.8 13.8 24.4666 13.3333 24C12.8667 23.5333 12.6667 22.8666 12.6667 22.0666H14.3333C14.3333 22.5333 14.4667 22.8666 14.6667 23.1333C14.8667 23.4 15.2 23.5333 15.6 23.5333C15.9333 23.5333 16.2 23.4666 16.4 23.2666C16.8667 23.0666 17 22.8 17 22.4666Z" fill="white"/>
<path d="M9.33334 26.6666C9.00001 26.6666 8.73334 26.4666 8.66668 26.1333C8.33334 24.6 8.33334 23 8.53334 21.4C8.93334 18.2 10 15.1333 11.6 12.8C11.6667 12.7333 11.6667 12.6666 11.7333 12.6C11.9333 12.2666 12.1333 11.9333 12.4667 11.7333C12.8667 11.4666 13.2 11.5333 13.4667 11.6H13.6C14.1333 11.7333 14.6 11.8 15.0667 11.8666C16.5333 12.0666 18 11.8666 19.2 11.4C19.5333 11.2666 19.9333 11.4 20.0667 11.8C20.2 12.1333 20.0667 12.5333 19.6667 12.6666C18.2667 13.2666 16.6 13.4 14.8667 13.2C14.4 13.1333 13.8667 13.0666 13.2667 12.8666H13.2C13.1333 13 13 13.1333 12.9333 13.2666C12.8667 13.4 12.8 13.4666 12.7333 13.5333C11.2667 15.6666 10.2667 18.5333 9.86668 21.5333C9.66668 23 9.73334 24.4 10 25.8C10.0667 26.1333 9.86668 26.5333 9.46668 26.6C9.40001 26.6666 9.40001 26.6666 9.33334 26.6666Z" fill="#FDD835"/>
<path d="M7.33334 20C6.93334 20 6.66667 19.7333 6.66667 19.3333C6.66667 17.0666 9.4 12 12.5333 11.3333C12.8667 11.2666 13.2667 11.4666 13.3333 11.8666C13.4 12.2 13.2 12.6 12.8 12.6666C10.4 13.1333 8.00001 17.5333 8.00001 19.3333C8.00001 19.7333 7.73334 20 7.33334 20Z" fill="#FDD835"/>
</svg>
