<svg width="32" height="32" viewBox="0 0 32 32" fill="none" xmlns="http://www.w3.org/2000/svg">
<path d="M29.3333 16C29.3333 23.3334 23.3333 29.3334 16 29.3334C8.66667 29.3334 2.66667 23.3334 2.66667 16C2.66667 8.66669 8.66667 2.66669 16 2.66669C23.3333 2.66669 29.3333 8.66669 29.3333 16Z" fill="#E0DDDC"/>
<path d="M5.79956 13.0801L6.22129 11.8153L11.4705 13.5654L11.0488 14.8303L5.79956 13.0801Z" fill="#BFBFBF"/>
<path d="M15.3333 5.33331H16.6667V10.6666H15.3333V5.33331Z" fill="#BFBFBF"/>
<path d="M9.07814 24.1802L12.4801 19.0768L13.5895 19.8164L10.1876 24.9197L9.07814 24.1802Z" fill="#BFBFBF"/>
<path d="M18.411 19.8181L19.5204 19.0786L22.9224 24.1819L21.8129 24.9215L18.411 19.8181Z" fill="#BFBFBF"/>
<path d="M18.5175 14.2355L25.7916 11.8138L26.2128 13.0788L18.9387 15.5006L18.5175 14.2355Z" fill="#BFBFBF"/>
<path d="M10.6667 14L16 10L21.3333 14L19.3333 20H12.6667L10.6667 14ZM20 3.26669C18.7333 2.86669 17.4 2.66669 16 2.66669C14.6 2.66669 13.2667 2.86669 12 3.26669L10.9333 5.20002L16 6.66669L20.6667 5.33335L20 3.26669ZM28 17.3334L29.3333 16C29.3333 12.6667 28.1333 9.66669 26.1333 7.33335L24.6667 7.53335V12.9334L28 17.3334ZM21.4667 23.2L18.6 27.7334L20.1333 28.6667C23.1333 27.6667 25.6667 25.6667 27.2667 23.0667L26.7333 21.1334L21.4667 23.2ZM7.4 12.9334L7.33334 7.53335L5.86667 7.33335C3.86667 9.66669 2.66667 12.6667 2.66667 16L4.00001 17.3334L7.4 12.9334ZM5.26667 21.2L4.73334 23.1334C6.4 25.7334 8.86667 27.7334 11.8667 28.7334L13.3333 27.6667L10.6 23.2667L5.26667 21.2Z" fill="#546E7A"/>
</svg>
