<svg width="32" height="32" viewBox="0 0 32 32" fill="none" xmlns="http://www.w3.org/2000/svg">
<path d="M15.3333 10.6666C15.2667 7.06665 17.9333 6.79998 20.0667 6.53331C22.6 6.26665 24 5.99998 24 3.33331H25.3333C25.3333 7.33331 22.4 7.66665 20.2 7.86665C17.8667 8.13331 16.6 8.33331 16.6667 10.6L15.3333 10.6666Z" fill="#546E7A"/>
<path d="M30 25.3333C30 27.5333 28.6667 28.6666 26.6667 28.6666C24.6667 28.6666 22.6667 23.3333 20 23.3333C17.3333 23.3333 15.3333 23.3333 12.6667 23.3333C10 23.3333 7.33333 28.6666 5.33333 28.6666C3.33333 28.6666 2 27.5333 2 25.3333C2 25.3333 2 9.33331 8 9.33331C10.6667 9.33331 11.4 10.6666 12.6667 10.6666C15.4 10.6666 15.9333 10.6666 18.6667 10.6666C19.9333 10.6666 21.3333 9.33331 24 9.33331C30 9.33331 30 25.3333 30 25.3333Z" fill="#CFD8DC"/>
<path d="M27.4 15.7333C27.9333 16.2667 27.9333 17.0667 27.4 17.6L23.6 21.4C23.0667 21.9333 22.2667 21.9333 21.7333 21.4L17.9333 17.6C17.4 17.0667 17.4 16.2667 17.9333 15.7333L21.7333 11.9333C22.2667 11.4 23.0667 11.4 23.6 11.9333L27.4 15.7333Z" fill="white"/>
<path d="M24 14C24 14.7334 23.4 15.3334 22.6667 15.3334C21.9333 15.3334 21.3333 14.7334 21.3333 14C21.3333 13.2667 21.9333 12.6667 22.6667 12.6667C23.4 12.6667 24 13.2667 24 14Z" fill="#FFC107"/>
<path d="M24 19.3333C24 20.0667 23.4 20.6667 22.6667 20.6667C21.9333 20.6667 21.3333 20.0667 21.3333 19.3333C21.3333 18.6 21.9333 18 22.6667 18C23.4 18 24 18.6 24 19.3333Z" fill="#8BC34A"/>
<path d="M24 16.6666C24 15.9333 24.6 15.3333 25.3333 15.3333C26.0667 15.3333 26.6667 15.9333 26.6667 16.6666C26.6667 17.4 26.0667 18 25.3333 18C24.6 18 24 17.4 24 16.6666Z" fill="#F44336"/>
<path d="M21.3333 16.6666C21.3333 17.4 20.7333 18 20 18C19.2667 18 18.6667 17.4 18.6667 16.6666C18.6667 15.9333 19.2667 15.3333 20 15.3333C20.7333 15.3333 21.3333 15.9333 21.3333 16.6666Z" fill="#2196F3"/>
<path d="M8 13.3333H10.6667V16H8V13.3333ZM10.6667 16H13.3333V18.6666H10.6667V16ZM5.33334 16H8V18.6666H5.33334V16ZM8 18.6666H10.6667V21.3333H8V18.6666Z" fill="#78909C"/>
</svg>
