<svg width="32" height="32" viewBox="0 0 32 32" fill="none" xmlns="http://www.w3.org/2000/svg">
<path d="M16 2C14.7743 2 13.5607 2.24141 12.4283 2.71046C11.2959 3.1795 10.267 3.86699 9.40033 4.73367C8.53365 5.60035 7.84617 6.62925 7.37712 7.76162C6.90808 8.89399 6.66666 10.1077 6.66666 11.3333C6.66666 12.559 6.90808 13.7727 7.37712 14.905C7.84617 16.0374 8.53365 17.0663 9.40033 17.933C10.267 18.7997 11.2959 19.4872 12.4283 19.9562C13.5607 20.4253 14.7743 20.6667 16 20.6667C17.2257 20.6667 18.4393 20.4253 19.5717 19.9562C20.7041 19.4872 21.733 18.7997 22.5997 17.933C23.4663 17.0663 24.1538 16.0374 24.6229 14.905C25.0919 13.7727 25.3333 12.559 25.3333 11.3333C25.3333 10.1077 25.0919 8.89399 24.6229 7.76162C24.1538 6.62925 23.4663 5.60035 22.5997 4.73367C21.733 3.86699 20.7041 3.1795 19.5717 2.71046C18.4393 2.24141 17.2257 2 16 2Z" fill="#D6D1D0"/>
<path d="M12.6667 20V21.284C12.6667 21.7147 12.8427 22.128 13.16 22.4187C13.716 22.9267 14.556 23.8207 14.6667 24.6667C14.8333 25.9447 15.3333 30 15.3333 30H16.6667C16.6667 30 17.1667 25.9447 17.3333 24.6667C17.444 23.8207 18.284 22.9267 18.84 22.4187C19.158 22.128 19.3333 21.7147 19.3333 21.284V20H12.6667Z" fill="#FFBA57"/>
<path d="M17.3333 11.3333C17.3333 12.07 16.7367 12.6666 16 12.6666C15.2633 12.6666 14.6667 12.07 14.6667 11.3333C14.6667 10.5966 15.2633 9.99998 16 9.99998C16.7367 9.99998 17.3333 10.5966 17.3333 11.3333ZM19.3333 9.99998C18.5967 9.99998 18 10.5966 18 11.3333C18 12.07 18.5967 12.6666 19.3333 12.6666C20.07 12.6666 20.6667 12.07 20.6667 11.3333C20.6667 10.5966 20.07 9.99998 19.3333 9.99998ZM24.6667 10.6666C24.2987 10.6666 24 10.9653 24 11.3333C24 11.7013 24.2987 12 24.6667 12C25.0347 12 25.3333 11.7013 25.3333 11.3333C25.3333 10.9653 25.0347 10.6666 24.6667 10.6666ZM22.3333 10.3333C21.7813 10.3333 21.3333 10.7813 21.3333 11.3333C21.3333 11.8853 21.7813 12.3333 22.3333 12.3333C22.8853 12.3333 23.3333 11.8853 23.3333 11.3333C23.3333 10.7813 22.8853 10.3333 22.3333 10.3333ZM12.6667 9.99998C11.93 9.99998 11.3333 10.5966 11.3333 11.3333C11.3333 12.07 11.93 12.6666 12.6667 12.6666C13.4033 12.6666 14 12.07 14 11.3333C14 10.5966 13.4033 9.99998 12.6667 9.99998ZM9.66666 10.3333C9.11466 10.3333 8.66666 10.7813 8.66666 11.3333C8.66666 11.8853 9.11466 12.3333 9.66666 12.3333C10.2187 12.3333 10.6667 11.8853 10.6667 11.3333C10.6667 10.7813 10.2187 10.3333 9.66666 10.3333ZM7.33333 10.6666C6.96533 10.6666 6.66666 10.9653 6.66666 11.3333C6.66666 11.7013 6.96533 12 7.33333 12C7.70133 12 8 11.7013 8 11.3333C8 10.9653 7.70133 10.6666 7.33333 10.6666ZM14 6.66665C13.2633 6.66665 12.6667 7.26331 12.6667 7.99998C12.6667 8.73665 13.2633 9.33331 14 9.33331C14.7367 9.33331 15.3333 8.73665 15.3333 7.99998C15.3333 7.26331 14.7367 6.66665 14 6.66665ZM17.3333 6.66665C16.5967 6.66665 16 7.26331 16 7.99998C16 8.73665 16.5967 9.33331 17.3333 9.33331C18.07 9.33331 18.6667 8.73665 18.6667 7.99998C18.6667 7.26331 18.07 6.66665 17.3333 6.66665ZM22.6667 7.33331C22.2987 7.33331 22 7.63198 22 7.99998C22 8.36798 22.2987 8.66665 22.6667 8.66665C23.0347 8.66665 23.3333 8.36798 23.3333 7.99998C23.3333 7.63198 23.0347 7.33331 22.6667 7.33331ZM20.3333 6.99998C19.7813 6.99998 19.3333 7.44798 19.3333 7.99998C19.3333 8.55198 19.7813 8.99998 20.3333 8.99998C20.8853 8.99998 21.3333 8.55198 21.3333 7.99998C21.3333 7.44798 20.8853 6.99998 20.3333 6.99998ZM11 6.99998C10.448 6.99998 10 7.44798 10 7.99998C10 8.55198 10.448 8.99998 11 8.99998C11.552 8.99998 12 8.55198 12 7.99998C12 7.44798 11.552 6.99998 11 6.99998ZM8.66666 7.33331C8.29866 7.33331 8 7.63198 8 7.99998C8 8.36798 8.29866 8.66665 8.66666 8.66665C9.03466 8.66665 9.33333 8.36798 9.33333 7.99998C9.33333 7.63198 9.03466 7.33331 8.66666 7.33331ZM19 3.66665C18.448 3.66665 18 4.11465 18 4.66665C18 5.21865 18.448 5.66665 19 5.66665C19.552 5.66665 20 5.21865 20 4.66665C20 4.11465 19.552 3.66665 19 3.66665ZM21.3333 3.99998C20.9653 3.99998 20.6667 4.29865 20.6667 4.66665C20.6667 5.03465 20.9653 5.33331 21.3333 5.33331C21.7013 5.33331 22 5.03465 22 4.66665C22 4.29865 21.7013 3.99998 21.3333 3.99998ZM16 3.33331C15.2633 3.33331 14.6667 3.92998 14.6667 4.66665C14.6667 5.40331 15.2633 5.99998 16 5.99998C16.7367 5.99998 17.3333 5.40331 17.3333 4.66665C17.3333 3.92998 16.7367 3.33331 16 3.33331ZM13 3.66665C12.448 3.66665 12 4.11465 12 4.66665C12 5.21865 12.448 5.66665 13 5.66665C13.552 5.66665 14 5.21865 14 4.66665C14 4.11465 13.552 3.66665 13 3.66665ZM10.6667 3.99998C10.2987 3.99998 10 4.29865 10 4.66665C10 5.03465 10.2987 5.33331 10.6667 5.33331C11.0347 5.33331 11.3333 5.03465 11.3333 4.66665C11.3333 4.29865 11.0347 3.99998 10.6667 3.99998ZM14 13.3333C13.2633 13.3333 12.6667 13.93 12.6667 14.6666C12.6667 15.4033 13.2633 16 14 16C14.7367 16 15.3333 15.4033 15.3333 14.6666C15.3333 13.93 14.7367 13.3333 14 13.3333ZM17.3333 13.3333C16.5967 13.3333 16 13.93 16 14.6666C16 15.4033 16.5967 16 17.3333 16C18.07 16 18.6667 15.4033 18.6667 14.6666C18.6667 13.93 18.07 13.3333 17.3333 13.3333ZM22.6667 14C22.2987 14 22 14.2986 22 14.6666C22 15.0346 22.2987 15.3333 22.6667 15.3333C23.0347 15.3333 23.3333 15.0346 23.3333 14.6666C23.3333 14.2986 23.0347 14 22.6667 14ZM20.3333 13.6666C19.7813 13.6666 19.3333 14.1146 19.3333 14.6666C19.3333 15.2186 19.7813 15.6666 20.3333 15.6666C20.8853 15.6666 21.3333 15.2186 21.3333 14.6666C21.3333 14.1146 20.8853 13.6666 20.3333 13.6666ZM11 13.6666C10.448 13.6666 10 14.1146 10 14.6666C10 15.2186 10.448 15.6666 11 15.6666C11.552 15.6666 12 15.2186 12 14.6666C12 14.1146 11.552 13.6666 11 13.6666ZM8.66666 14C8.29866 14 8 14.2986 8 14.6666C8 15.0346 8.29866 15.3333 8.66666 15.3333C9.03466 15.3333 9.33333 15.0346 9.33333 14.6666C9.33333 14.2986 9.03466 14 8.66666 14ZM19 17C18.448 17 18 17.448 18 18C18 18.552 18.448 19 19 19C19.552 19 20 18.552 20 18C20 17.448 19.552 17 19 17ZM21.3333 17.3333C20.9653 17.3333 20.6667 17.632 20.6667 18C20.6667 18.368 20.9653 18.6666 21.3333 18.6666C21.7013 18.6666 22 18.368 22 18C22 17.632 21.7013 17.3333 21.3333 17.3333ZM16 16.6666C15.2633 16.6666 14.6667 17.2633 14.6667 18C14.6667 18.7366 15.2633 19.3333 16 19.3333C16.7367 19.3333 17.3333 18.7366 17.3333 18C17.3333 17.2633 16.7367 16.6666 16 16.6666ZM13 17C12.448 17 12 17.448 12 18C12 18.552 12.448 19 13 19C13.552 19 14 18.552 14 18C14 17.448 13.552 17 13 17ZM10.6667 17.3333C10.2987 17.3333 10 17.632 10 18C10 18.368 10.2987 18.6666 10.6667 18.6666C11.0347 18.6666 11.3333 18.368 11.3333 18C11.3333 17.632 11.0347 17.3333 10.6667 17.3333Z" fill="#B2AEAD"/>
<path d="M18.84 22.4187C18.9713 22.2987 19.0713 22.1547 19.152 22H12.8487C12.9293 22.154 13.0293 22.2987 13.1607 22.4187C13.5707 22.794 14.134 23.3793 14.4467 24H17.5547C17.866 23.3793 18.4293 22.7933 18.84 22.4187Z" fill="#F29B1C"/>
</svg>
