<svg width="88" height="32" viewBox="0 0 88 32" fill="none" xmlns="http://www.w3.org/2000/svg">
<path d="M6.15749 0.0894474C6.56714 1.23612 6.88421 2.40956 7.10868 3.60835L7.20828 4.11971C7.31631 4.67191 7.42293 5.22553 7.52815 5.77914L7.75403 6.94554C7.95184 7.96684 8.14965 8.98814 8.34606 10.0094C8.54528 11.0406 8.7445 12.0718 8.94372 13.1029C9.16959 14.2665 9.39546 15.4301 9.61853 16.5951L9.72234 17.1318L9.92156 18.1615C10.0675 18.9279 10.219 19.6928 10.3747 20.4563L10.4575 20.862C10.5304 21.2127 10.6034 21.5649 10.6763 21.9171C10.7745 22.4806 10.7745 22.4806 10.7745 23.2539C11.5069 22.5383 12.1817 21.7903 12.8439 21.0099L13.1511 20.6479C13.7418 19.9506 14.3254 19.2476 14.8992 18.5362C15.5922 17.6798 16.3063 16.8458 17.0274 16.0147C17.8832 15.03 18.7222 14.0369 19.5415 13.0226C20.1363 12.2873 20.734 11.5576 21.333 10.8265L21.6824 10.4011C22.482 9.42765 23.2901 8.46411 24.1066 7.50479C24.738 6.761 25.3328 5.99467 25.9094 5.20722L26.1676 4.91421H26.552C26.8325 5.25511 26.8325 5.25511 27.1608 5.73688L27.534 6.27782L27.9353 6.86947L28.3519 7.47802C28.7784 8.10207 29.2049 8.72753 29.63 9.3544L30.0074 9.91083C30.4816 10.6081 30.9558 11.3054 31.4286 12.0027C33.143 14.5313 34.891 17.036 36.6405 19.5392C37.7095 21.0662 38.7687 22.6017 39.8167 24.1442C40.817 25.6149 41.8313 27.0743 42.8499 28.5323L43.2259 29.0732L43.5597 29.5508C43.874 30.0185 44.177 30.4791 44.445 30.975V31.5539C39.191 32.1484 39.191 32.1484 37.1343 31.5539C36.0681 30.8848 35.5308 29.9973 34.9303 28.9141C34.7227 28.5069 34.5234 28.0956 34.3312 27.6829C33.9454 26.8869 33.4558 26.1967 32.9367 25.4853C32.7684 25.2402 32.6 24.9937 32.4317 24.7472L32.1861 24.3865L31.6881 23.6582C30.6036 22.0706 29.5136 20.4873 28.4151 18.9095L28.0812 18.4278C27.3979 17.4487 26.6965 16.4824 25.974 15.5315C25.2655 15.8611 24.9203 16.2119 24.4349 16.8345C23.7433 17.7065 23.0348 18.563 22.3067 19.4054C21.5351 20.3041 20.7789 21.2127 20.0451 22.1439C18.6436 23.9146 17.2224 25.6684 15.7564 27.3842C15.3425 27.8674 14.9413 28.3618 14.5527 28.8662C13.7698 29.8832 13.0908 30.6284 11.9376 31.206C11.0832 31.5427 10.3495 31.6272 9.42773 31.5539C8.35027 31.2891 7.38365 30.9355 6.55452 30.1791C5.31011 28.7295 5.00427 26.8165 4.65213 24.9909L4.50483 24.2513C4.37295 23.5878 4.24248 22.9257 4.11341 22.2622C3.97732 21.5635 3.83843 20.8662 3.70094 20.1689C3.46946 18.9983 3.23938 17.8277 3.0107 16.657C2.74695 15.3061 2.48039 13.958 2.21383 12.6085C1.92904 11.166 1.64424 9.72207 1.36085 8.27957C1.27948 7.86682 1.19811 7.45267 1.11674 7.03992C0.963817 6.26796 0.8123 5.49459 0.662186 4.72263L0.526101 4.03519C0.283393 2.78709 0.0982057 1.55167 0 0.282438C0.84597 0.250038 1.69194 0.217638 2.53791 0.185238L3.26463 0.157065L3.9647 0.131708L4.60864 0.106352C5.12633 0.090856 5.6412 0.0852213 6.15749 0.0894474Z" fill="#9A2BD8"/>
<path d="M77.0926 13.341C79.3162 13.3241 81.3658 13.4003 83.3579 14.5187C84.9503 15.5626 86.2276 16.7431 87.1578 18.4279C87.9307 20.1873 88.1258 21.9259 87.928 23.8331C87.5633 25.5952 86.9344 27.1841 85.7884 28.5743C84.4753 29.99 83.0569 30.7782 81.2543 31.422C79.6929 31.746 78.1564 31.7733 76.5684 31.7677L75.8867 31.7696C75.1459 31.7682 74.4047 31.7685 73.6653 31.7657H72.1189C70.9056 31.7643 69.6909 31.7623 68.4776 31.7608C67.0944 31.758 65.7109 31.7569 64.3277 31.7569C61.484 31.7541 58.64 31.7514 55.7963 31.7472C56.0488 30.9697 56.3264 30.2567 56.7037 29.5314L57.0081 28.9464L57.3242 28.3448L57.6364 27.7374C58.2157 26.6317 58.2158 26.6317 58.4893 26.1486L58.6761 25.7384L59.068 25.3771C59.7049 25.256 60.3402 25.2743 60.9869 25.2814L61.585 25.2765C62.0128 25.2751 62.442 25.2751 62.8698 25.2765C63.5488 25.2793 64.2264 25.2764 64.9054 25.2736C66.1021 25.2679 67.2975 25.2673 68.4942 25.2687C70.4063 25.2687 72.3187 25.2654 74.2323 25.257C74.9 25.2556 75.5677 25.2575 76.2368 25.2589C76.6464 25.2575 77.0575 25.2569 77.4671 25.254L78.0302 25.2599C78.8269 25.2528 79.3926 25.2102 80.1416 24.9201C80.6435 24.6273 80.6433 24.6268 80.9644 24.1212C81.3642 23.2789 81.4501 22.6406 81.3856 21.7082C81.1317 21.1337 80.8466 20.7825 80.4062 20.3361C79.8524 19.918 79.8521 19.9183 79.1088 19.8732C78.817 19.8676 78.5252 19.8679 78.2335 19.8693L77.7491 19.8644C77.2217 19.8588 76.6942 19.8605 76.1668 19.8605C75.7993 19.8577 75.4333 19.8559 75.0658 19.8517C74.0992 19.8447 73.1318 19.8424 72.1666 19.841C70.6194 19.8368 69.0736 19.8254 67.5265 19.8156C66.9877 19.8128 66.4472 19.8111 65.9071 19.8097L64.9122 19.8058L64.459 19.8068C63.7282 19.8026 63.049 19.7636 62.3378 19.5861C62.4584 18.6845 62.8307 17.936 63.2403 17.1359L63.4475 16.7248C64.849 13.9778 64.8492 13.9775 65.416 13.4084C65.8593 13.3873 66.3012 13.3785 66.7445 13.3771L67.1656 13.3752C67.6272 13.3724 68.0905 13.3707 68.5535 13.3693L69.5192 13.3664C70.1954 13.3636 70.8734 13.3625 71.5509 13.3625C72.4137 13.3611 73.2771 13.3564 74.1399 13.3508C74.8062 13.3465 75.4742 13.3463 76.1405 13.3449C76.4574 13.3449 76.7757 13.3438 77.0926 13.341Z" fill="#1FE6E5"/>
<path d="M64.9803 0.018798L65.7194 0.0178215C66.3856 0.0178249 67.0518 0.0302198 67.718 0.0471182C68.4153 0.0612049 69.1128 0.0628554 69.81 0.0656728C71.1287 0.0727155 72.4474 0.0919643 73.7674 0.114501C75.2699 0.141265 76.7728 0.154013 78.2753 0.165282C81.3644 0.189229 84.4537 0.23035 87.5429 0.282469C87.1263 1.76847 87.1269 1.76882 86.8183 2.38012L86.6258 2.76195L86.4235 3.15355L86.2173 3.56175C86.0195 3.9491 85.8188 4.33499 85.6182 4.72093L85.3167 5.30198C84.8611 6.15354 84.8609 6.15394 84.6563 6.4592C84.0194 6.77897 83.3087 6.66274 82.61 6.64865L80.9644 6.62619C79.7496 6.6107 78.5346 6.60698 77.3212 6.60275C76.2536 6.59853 75.1861 6.58927 74.1185 6.56955C73.086 6.55124 72.0544 6.54427 71.0219 6.54709C70.6293 6.54708 70.2367 6.53936 69.8441 6.52951C68.0807 6.45626 68.0804 6.45716 66.3788 6.84592C65.5371 7.54881 65.211 8.54134 64.8392 9.54708C64.6204 9.97532 64.3973 10.4013 64.1672 10.8225C63.9498 11.2464 63.7325 11.6705 63.5165 12.093L62.4671 14.1359C61.3855 16.2376 60.2823 18.3254 59.139 20.3947C58.4489 21.6454 57.7867 22.903 57.1569 24.1847C56.6014 25.3074 56.0364 26.4249 55.4598 27.5363L55.1914 28.0616C54.6793 29.0477 54.197 29.9734 53.323 30.6876C52.4463 31.2341 51.6366 31.6344 50.6028 31.7472C49.4369 31.7838 48.4865 31.4438 47.4371 30.962C46.0849 29.9337 45.1964 28.2803 44.2762 26.8732C44.0069 26.4647 43.7383 26.0571 43.469 25.6486L43.2482 25.3146C42.2017 23.7327 41.1397 22.1605 40.0805 20.5871L39.7615 20.1154C38.252 17.8743 36.7391 15.6368 35.2099 13.4084L33.8639 11.4436C33.4486 10.8364 33.0303 10.2295 32.6122 9.6252C31.5305 8.05592 30.4644 6.47465 29.4066 4.88987C29.2524 4.66043 29.0998 4.43084 28.9456 4.2014C28.0898 2.92515 27.2634 1.64605 26.5521 0.282469L26.7437 0.0891102C27.2332 0.0693946 27.7189 0.0613412 28.2084 0.0627431H28.6548C28.9676 0.0627431 29.2806 0.0623121 29.5933 0.0637197C30.0703 0.0651286 30.5489 0.0641517 31.0259 0.0627431H32.3681C33.6613 0.0683767 33.662 0.068485 34.248 0.282469C34.5146 0.568433 34.5155 0.568455 34.7596 0.944575L35.0436 1.37231L35.3451 1.84301L35.668 2.33519C36.0187 2.8676 36.3656 3.4025 36.7135 3.93773C36.9548 4.3068 37.1977 4.6765 37.439 5.04417C37.8093 5.60892 38.1799 6.17222 38.5487 6.73557C39.7019 8.49499 40.8735 10.242 42.0519 11.9846L42.5732 12.758C43.9692 14.8259 45.3795 16.8824 46.7922 18.9377L47.5314 20.0129C47.9466 20.6171 48.3565 21.2239 48.7549 21.838L49.1702 22.4806L49.532 23.048L49.8325 23.4464H50.2167C51.5887 20.887 52.9609 18.3288 54.2937 15.7482C55.0091 14.3635 55.7431 12.9886 56.4936 11.6223C57.6959 9.43744 58.8256 7.21418 59.9521 4.9885C60.0235 4.84782 60.0951 4.7072 60.168 4.5637C60.2998 4.30321 60.4315 4.04251 60.5619 3.78343C60.6853 3.53979 60.8132 3.29867 60.9451 3.05785C61.1204 2.71839 61.2828 2.37288 61.4343 2.02074C61.7499 1.36711 62.0562 0.831858 62.5304 0.282469C63.3468 -0.0471379 64.1091 -0.0121922 64.9803 0.018798Z" fill="#1FE6E5"/>
</svg>
