<svg width="24" height="24" viewBox="0 0 24 24" fill="none" xmlns="http://www.w3.org/2000/svg">
<path d="M23.692 13.038L18.235 10.765L15.962 5.30801C15.806 4.93501 15.194 4.93501 15.038 5.30801L12.765 10.765L7.308 13.038C7.121 13.116 7 13.298 7 13.5C7 13.702 7.121 13.884 7.308 13.962L12.765 16.235L15.038 21.692C15.116 21.879 15.298 22 15.5 22C15.702 22 15.884 21.879 15.962 21.692L18.235 16.235L23.692 13.962C23.879 13.884 24 13.702 24 13.5C24 13.298 23.879 13.116 23.692 13.038ZM10.658 6.02501L7.146 4.85401L5.975 1.34201C5.838 0.934011 5.162 0.934011 5.026 1.34201L3.854 4.85401L0.342 6.02501C0.138 6.09401 0 6.28501 0 6.50001C0 6.71501 0.138 6.90601 0.342 6.97501L3.855 8.14601L5.026 11.659C5.094 11.862 5.285 12 5.5 12C5.715 12 5.906 11.862 5.975 11.658L7.146 8.14501L10.659 6.97401C10.862 6.90601 11 6.71501 11 6.50001C11 6.28501 10.862 6.09401 10.658 6.02501ZM8.658 19.025L6.645 18.354L5.974 16.341C5.837 15.933 5.161 15.933 5.025 16.341L4.354 18.354L2.341 19.025C2.138 19.094 2 19.285 2 19.5C2 19.715 2.138 19.906 2.342 19.975L4.355 20.646L5.026 22.659C5.094 22.862 5.285 23 5.5 23C5.715 23 5.906 22.862 5.975 22.658L6.646 20.645L8.659 19.974C8.862 19.906 9 19.715 9 19.5C9 19.285 8.862 19.094 8.658 19.025Z" fill="white"/>
</svg>
