<svg width="32" height="32" viewBox="0 0 32 32" fill="none" xmlns="http://www.w3.org/2000/svg">
<path d="M21.6173 19.3333H11.916C11.226 19.3333 10.6667 20.1413 10.6667 21.1373V27.6666C10.6667 28.6633 11.236 29.3333 11.926 29.3333H21.4073L22.6667 23.8786L21.6173 19.3333Z" fill="#AB3939"/>
<path d="M7.33301 12L8 12.667C8.01372 12.6673 25.9912 13.1109 26 12.667V18.2451C26 20.5785 25.4693 21.0207 24 22H23.9951C23.9972 22.0363 24 22.073 24 22.1104V27.8887C24 28.7527 23.4239 29.333 22.7139 29.333H18.209C19.2877 28.6163 20 27.392 20 26C20 24.974 19.6109 24.041 18.9756 23.333H10.667V22L10.5771 21.9961C10.1676 21.9688 8.4174 21.7503 6.66699 20C4.10366 17.4367 2 12 2 12H7.33301Z" fill="#932828"/>
<path d="M14 8.39355C13.9999 8.77743 13.7549 9.03027 13.333 9.03027C12.9119 9.03015 12.667 8.77746 12.667 8.39355V3.33301H14V8.39355Z" fill="#932828"/>
<path d="M17.333 3.37109C17.7977 3.39576 18.2397 3.43602 18.667 3.48535V8.39355C18.6669 8.77743 18.4219 9.03027 18 9.03027C17.578 9.03027 17.333 8.77755 17.333 8.39355V3.37109Z" fill="#932828"/>
<path d="M22 4.17773C22.4905 4.33569 22.9324 4.50978 23.333 4.69238V8.39355C23.3329 8.77733 23.0887 9.03014 22.667 9.03027C22.245 9.03027 22 8.77755 22 8.39355V4.17773Z" fill="#932828"/>
<path d="M23.3573 22H10.6667C9.194 22 8 20.806 8 19.3334C8 17.8607 9.194 16.6667 10.6667 16.6667H23.3573C24.83 16.6667 26.024 17.8607 26.024 19.3334C26.024 20.806 24.83 22 23.3573 22Z" fill="#C05C5C"/>
<path d="M23.3333 4.69265V8.39398C23.3333 8.77798 23.0887 9.03065 22.6667 9.03065C22.2447 9.03065 22 8.77798 22 8.39398V4.17798C21.0573 3.87465 19.9433 3.63198 18.6667 3.48531V8.39398C18.6667 8.77798 18.422 9.03065 18 9.03065C17.578 9.03065 17.3333 8.77798 17.3333 8.39398V3.37131C16.9033 3.34798 16.462 3.33331 16 3.33331H14V8.39398C14 8.77798 13.7553 9.03065 13.3333 9.03065C12.912 9.03065 12.6667 8.77798 12.6667 8.39398V3.33331H9.30467C8.584 3.33331 8 3.91131 8 4.62465V12.788C8 14.194 9.15133 15.3333 10.5713 15.3333H23.4287C24.8487 15.3333 26 14.194 26 12.788V7.15131C26 6.49531 25.106 5.50198 23.3333 4.69265Z" fill="#C05C5C"/>
</svg>
