<?xml version="1.0" standalone="no"?>
<!DOCTYPE svg PUBLIC "-//W3C//DTD SVG 20010904//EN"
 "http://www.w3.org/TR/2001/REC-SVG-20010904/DTD/svg10.dtd">
<svg version="1.0" xmlns="http://www.w3.org/2000/svg"
 width="400.000000pt" height="400.000000pt" viewBox="0 0 400.000000 400.000000"
 preserveAspectRatio="xMidYMid meet">

<g transform="translate(0.000000,400.000000) scale(0.100000,-0.100000)"
fill="#000000" stroke="none">
<path d="M1980 3735 c0 -9 -7 -18 -15 -21 -17 -7 -21 -34 -5 -34 6 0 13 -7 17
-15 7 -20 -24 -44 -57 -45 -15 0 -32 -6 -38 -12 -7 -7 -27 -11 -45 -10 -21 2
-38 -3 -46 -12 -8 -9 -29 -16 -47 -16 -27 0 -38 -6 -52 -28 -9 -16 -23 -27
-30 -24 -20 6 -62 -26 -62 -48 0 -29 -28 -40 -62 -23 -26 13 -31 13 -56 -4
-15 -10 -43 -20 -62 -23 -24 -3 -38 -12 -45 -27 -6 -14 -20 -23 -40 -25 -23
-2 -34 -11 -45 -35 -8 -18 -22 -33 -30 -33 -24 0 -40 -21 -40 -52 0 -16 -11
-38 -26 -53 -20 -20 -24 -32 -19 -52 4 -17 2 -29 -7 -34 -7 -5 -14 -30 -15
-56 -2 -26 -5 -70 -9 -96 -5 -42 -3 -52 17 -73 12 -13 38 -26 58 -30 20 -3 52
-11 71 -19 68 -26 85 -26 161 6 357 147 727 149 1085 5 90 -37 105 -38 174
-11 19 8 51 16 71 19 20 4 46 17 58 30 20 21 22 31 17 73 -4 26 -7 70 -9 96
-1 26 -8 51 -15 56 -9 5 -11 17 -7 34 5 20 1 32 -19 52 -15 15 -26 37 -26 53
0 31 -16 52 -39 52 -9 0 -23 15 -31 33 -11 24 -22 33 -45 35 -20 2 -34 11 -40
25 -7 15 -21 24 -45 27 -19 3 -47 13 -62 23 -25 17 -30 17 -56 4 -34 -17 -62
-6 -62 23 0 22 -41 53 -64 48 -9 -2 -22 8 -29 22 -9 18 -22 26 -47 28 -19 2
-43 10 -52 19 -11 10 -29 14 -48 11 -18 -3 -35 1 -41 9 -6 7 -23 13 -38 13
-34 1 -65 25 -58 45 4 8 11 15 17 15 5 0 10 9 10 20 0 11 -7 20 -15 20 -8 0
-15 7 -15 15 0 8 -9 15 -20 15 -11 0 -20 -7 -20 -15z m30 -15 c0 -12 7 -20 18
-21 16 -1 16 -2 0 -6 -23 -6 -24 -52 -2 -67 9 -7 17 -28 17 -50 1 -25 8 -43
19 -50 14 -9 24 -4 53 27 19 20 43 37 53 37 20 0 42 -18 42 -34 0 -6 -5 -3
-11 7 -13 23 -46 22 -59 -2 -26 -50 31 -70 74 -26 14 14 33 25 44 25 20 0 42
-18 42 -34 0 -6 -5 -5 -12 2 -19 19 -56 14 -63 -8 -7 -23 10 -50 31 -50 7 0
20 7 28 16 9 8 16 13 16 10 0 -3 11 -1 24 4 33 12 70 -14 63 -46 -3 -19 0 -24
17 -25 21 -2 21 -2 -1 -6 -33 -6 -47 -28 -33 -52 20 -38 70 -20 70 24 0 12 5
26 12 33 18 18 62 14 75 -7 8 -13 19 -17 37 -14 30 6 56 -11 56 -37 0 -13 6
-16 25 -12 26 4 55 -12 55 -31 0 -6 -6 -3 -13 7 -20 27 -61 18 -65 -15 -4 -36
21 -55 54 -40 77 35 128 -24 69 -79 -31 -29 -32 -65 -4 -80 16 -9 25 -8 40 6
25 22 24 39 -3 58 l-22 16 22 0 c30 0 45 -37 26 -67 -12 -19 -12 -22 6 -28 23
-7 36 -43 21 -58 -8 -8 -11 -5 -11 11 0 30 -43 51 -65 32 -34 -28 -5 -77 40
-66 20 5 27 1 40 -23 36 -70 6 -124 -78 -140 -26 -4 -53 -13 -60 -19 -25 -21
-82 -14 -173 21 -209 81 -440 117 -636 98 -135 -14 -288 -50 -412 -98 -91 -35
-148 -42 -173 -21 -7 6 -34 15 -60 19 -84 16 -114 70 -77 140 12 23 13 34 4
44 -15 19 -4 52 21 60 17 6 18 9 5 26 -20 29 -9 59 26 66 21 4 26 9 19 16 -15
15 -14 50 1 65 7 7 22 12 35 12 18 0 23 6 23 24 0 31 24 50 55 44 19 -4 25 -1
25 12 0 26 26 43 58 37 21 -4 31 -1 40 14 16 26 57 24 76 -3 8 -12 13 -25 10
-30 -8 -13 16 -38 36 -38 29 0 43 25 30 50 -8 16 -19 21 -36 17 -13 -2 -21 0
-18 4 3 5 13 9 23 9 14 0 17 6 14 24 -7 33 30 58 64 45 20 -7 24 -7 20 5 -8
19 20 56 43 56 10 0 32 -11 48 -25 34 -28 54 -31 71 -11 9 11 10 20 1 35 -12
24 -39 27 -60 9 -12 -11 -12 -10 -1 5 21 26 48 20 85 -19 29 -31 37 -34 55
-25 15 9 20 20 19 48 -1 23 5 40 15 48 23 17 23 65 0 66 -17 1 -17 2 0 6 9 2
17 13 17 24 0 10 5 19 10 19 6 0 10 -9 10 -20z m-66 -119 c4 -5 -2 -7 -12 -4
-11 2 -26 -3 -36 -12 -9 -9 -16 -13 -16 -8 0 26 52 45 64 24z m164 -3 c20 -20
13 -30 -9 -14 -12 8 -28 12 -37 9 -10 -4 -13 -2 -8 5 9 15 39 15 54 0z m-168
-38 c0 -21 -24 -28 -35 -10 -8 14 3 30 21 30 8 0 14 -9 14 -20z m155 0 c0 -8
-8 -16 -17 -18 -13 -2 -18 3 -18 18 0 15 5 20 18 18 9 -2 17 -10 17 -18z
m-247 -17 c-2 -10 -10 -18 -18 -18 -8 0 -16 8 -18 18 -2 12 3 17 18 17 15 0
20 -5 18 -17z m340 0 c-2 -10 -10 -18 -18 -18 -8 0 -16 8 -18 18 -2 12 3 17
18 17 15 0 20 -5 18 -17z m90 -36 c2 -12 -3 -17 -17 -17 -12 0 -21 6 -21 13 0
31 32 34 38 4z m140 -120 c2 -12 -3 -17 -17 -17 -12 0 -21 6 -21 13 0 31 32
34 38 4z m-800 -4 c-2 -10 -10 -18 -18 -18 -8 0 -16 8 -18 18 -2 12 3 17 18
17 15 0 20 -5 18 -17z m1062 -69 c0 -19 -28 -30 -42 -16 -8 8 -8 15 1 26 14
17 41 10 41 -10z m98 -157 c4 -20 -25 -34 -40 -19 -15 15 -1 44 19 40 10 -2
19 -11 21 -21z m22 -96 c0 -26 -17 -36 -35 -21 -18 15 -8 40 16 40 12 0 19 -7
19 -19z"/>
<path d="M1728 3539 c-22 -12 -23 -42 -2 -60 31 -26 70 25 44 56 -14 17 -19
18 -42 4z m37 -29 c0 -8 -8 -16 -17 -18 -13 -2 -18 3 -18 18 0 15 5 20 18 18
9 -2 17 -10 17 -18z"/>
<path d="M1974 3496 c-11 -28 1 -51 28 -54 31 -4 48 29 28 53 -16 19 -49 19
-56 1z m44 -23 c-2 -10 -10 -18 -18 -18 -8 0 -16 8 -18 18 -2 12 3 17 18 17
15 0 20 -5 18 -17z"/>
<path d="M1634 3476 c-11 -28 1 -51 25 -51 32 0 49 28 32 49 -17 20 -50 21
-57 2z m43 -12 c8 -20 -8 -36 -26 -25 -15 10 -8 41 9 41 6 0 13 -7 17 -16z"/>
<path d="M2310 3475 c-18 -22 -1 -50 31 -50 20 0 24 5 24 30 0 23 -5 31 -21
33 -11 2 -27 -4 -34 -13z m47 -11 c7 -18 -17 -38 -31 -24 -11 11 -1 40 14 40
6 0 13 -7 17 -16z"/>
<path d="M1838 3461 c-132 -42 -195 -111 -213 -233 -6 -40 -4 -48 13 -57 50
-27 67 -75 42 -121 -7 -13 -5 -21 6 -31 13 -11 20 -10 42 2 23 13 26 20 24 56
-4 46 13 63 62 63 30 0 62 -41 52 -67 -8 -20 10 -33 46 -33 34 0 45 16 20 29
-11 6 -25 23 -31 39 -14 34 -4 65 33 104 15 15 22 30 16 33 -13 8 -13 72 0 80
6 4 5 13 -2 25 -9 14 -10 27 -2 47 14 38 -3 83 -30 82 -12 0 -46 -8 -78 -18z
m93 -8 c1 -10 2 -45 2 -78 0 -53 -2 -60 -19 -57 -73 9 -164 3 -211 -16 -29
-11 -53 -17 -53 -13 0 18 49 78 88 108 37 28 142 71 180 72 6 1 13 -7 13 -16z"/>
<path d="M2055 3453 c-8 -19 -8 -37 -1 -56 7 -20 7 -33 -2 -47 -8 -14 -8 -21
-1 -26 7 -4 9 -24 6 -51 -4 -36 0 -49 18 -71 12 -15 25 -37 29 -49 8 -26 -15
-78 -39 -87 -24 -9 -8 -26 23 -26 36 0 54 13 46 33 -10 26 22 67 52 67 49 0
66 -17 62 -63 -2 -36 1 -43 24 -56 22 -12 29 -13 42 -2 11 10 13 18 6 31 -25
46 -8 94 42 121 17 9 19 17 13 57 -11 74 -34 120 -82 162 -46 40 -123 75 -191
86 -34 5 -38 3 -47 -23z m131 -14 c58 -22 128 -78 149 -120 8 -15 15 -30 15
-33 0 -2 -24 5 -52 16 -48 18 -141 25 -212 16 -17 -3 -19 4 -19 57 1 102 -1
97 36 90 17 -4 55 -16 83 -26z"/>
<path d="M1484 3416 c-10 -26 1 -51 22 -54 27 -4 47 21 39 48 -7 24 -53 28
-61 6z m45 -10 c8 -10 8 -16 -3 -25 -10 -9 -16 -8 -26 3 -12 15 -6 36 9 36 5
0 14 -6 20 -14z"/>
<path d="M2459 3414 c-17 -21 0 -49 31 -49 31 0 48 28 31 49 -8 9 -21 16 -31
16 -10 0 -23 -7 -31 -16z m48 -10 c8 -21 -13 -42 -28 -27 -13 13 -5 43 11 43
6 0 13 -7 17 -16z"/>
<path d="M1983 3413 c-18 -6 -16 -48 1 -62 20 -16 56 3 56 29 0 16 -29 42 -42
39 -2 0 -9 -3 -15 -6z m37 -33 c0 -21 -24 -28 -35 -10 -8 14 3 30 21 30 8 0
14 -9 14 -20z"/>
<path d="M1402 3388 c-27 -27 5 -76 38 -58 25 14 32 37 14 55 -19 18 -36 19
-52 3z m43 -28 c0 -22 -29 -18 -33 3 -3 14 1 18 15 15 10 -2 18 -10 18 -18z"/>
<path d="M2553 3393 c-20 -7 -15 -51 6 -63 15 -7 23 -6 35 6 34 34 4 76 -41
57z m37 -33 c0 -21 -24 -28 -35 -10 -8 14 3 30 21 30 8 0 14 -9 14 -20z"/>
<path d="M1323 3343 c-16 -6 -17 -45 -1 -61 32 -32 80 8 58 48 -10 19 -31 24
-57 13z m47 -33 c0 -24 -25 -33 -40 -14 -10 11 -10 17 0 28 15 19 40 10 40
-14z"/>
<path d="M1536 3334 c-9 -8 -16 -19 -16 -24 0 -11 29 -40 40 -40 11 0 40 29
40 40 0 11 -29 40 -40 40 -5 0 -16 -7 -24 -16z m40 -15 c10 -17 -13 -36 -27
-22 -12 12 -4 33 11 33 5 0 12 -5 16 -11z"/>
<path d="M2422 3338 c-30 -30 3 -77 40 -57 30 16 16 69 -17 69 -6 0 -16 -5
-23 -12z m38 -28 c0 -21 -24 -28 -35 -10 -8 14 3 30 21 30 8 0 14 -9 14 -20z"/>
<path d="M1970 3305 c-15 -19 -4 -52 21 -60 38 -12 65 35 37 63 -16 16 -43 15
-58 -3z m50 -10 c15 -18 5 -35 -21 -35 -12 0 -19 7 -19 18 0 33 20 42 40 17z"/>
<path d="M1455 3293 c-78 -41 -138 -130 -151 -227 -5 -32 -2 -50 10 -67 18
-27 21 -71 6 -100 -9 -16 -7 -19 8 -19 33 0 48 27 34 62 -8 22 -8 36 0 54 19
42 90 44 103 3 13 -41 65 -46 86 -8 8 16 6 19 -9 19 -30 0 -72 38 -72 65 0 13
11 36 24 52 24 28 24 29 5 41 -33 21 -15 91 24 92 7 0 4 5 -5 11 -10 5 -18 17
-18 24 0 19 -7 18 -45 -2z m40 -13 c11 -18 -35 -64 -82 -83 -25 -10 -48 -15
-51 -12 -12 12 94 105 120 105 4 0 10 -5 13 -10z"/>
<path d="M2494 3286 c-9 -20 -8 -27 7 -40 26 -22 24 -61 -3 -80 -12 -9 -18
-16 -12 -16 14 0 44 -54 44 -78 0 -24 -44 -62 -72 -62 -15 0 -17 -3 -9 -19 21
-39 73 -33 86 9 3 11 17 23 30 26 58 14 94 -28 72 -86 -11 -28 -10 -33 7 -46
30 -21 49 -19 36 5 -15 29 -12 68 6 97 32 47 -5 176 -69 242 -25 27 -95 72
-109 72 -2 0 -8 -11 -14 -24z m55 -10 c24 -13 101 -89 101 -100 0 -3 -24 5
-54 17 -55 23 -103 68 -91 87 8 13 11 13 44 -4z"/>
<path d="M1263 3273 c-19 -7 -16 -60 3 -67 9 -3 19 -6 24 -6 11 0 40 29 40 40
0 13 -30 40 -43 39 -7 0 -18 -3 -24 -6z m36 -49 c-14 -14 -17 -14 -29 0 -10
13 -10 19 0 32 12 14 15 14 29 0 14 -15 14 -17 0 -32z"/>
<path d="M2687 3273 c-12 -12 -7 -50 8 -63 19 -15 52 -4 60 21 4 11 1 26 -5
34 -13 15 -51 20 -63 8z m51 -26 c4 -21 -25 -34 -40 -19 -8 8 -8 16 2 27 16
19 34 15 38 -8z"/>
<path d="M1522 3238 c-30 -30 3 -77 40 -57 30 16 16 69 -17 69 -6 0 -16 -5
-23 -12z m46 -25 c5 -17 -26 -29 -40 -15 -6 6 -7 15 -3 22 9 14 37 9 43 -7z"/>
<path d="M2432 3238 c-30 -30 0 -78 37 -58 32 17 21 70 -14 70 -6 0 -16 -5
-23 -12z m38 -28 c0 -11 -6 -20 -14 -20 -18 0 -29 16 -21 30 11 18 35 11 35
-10z"/>
<path d="M1233 3190 c-44 -18 -19 -90 25 -75 27 8 34 41 14 64 -13 15 -22 17
-39 11z m35 -39 c-2 -9 -11 -17 -21 -19 -21 -4 -35 27 -17 38 19 12 42 0 38
-19z"/>
<path d="M1968 3189 c-22 -13 -24 -62 -2 -83 21 -21 57 -20 77 2 46 50 -16
116 -75 81z m72 -44 c0 -37 -34 -51 -60 -25 -25 25 -25 35 2 54 28 20 58 4 58
-29z"/>
<path d="M1562 3143 c-7 -3 -18 -16 -23 -30 -22 -59 59 -102 95 -51 21 30 20
44 -4 68 -20 20 -42 24 -68 13z m56 -25 c32 -32 -8 -80 -48 -58 -34 18 -19 70
20 70 9 0 21 -5 28 -12z"/>
<path d="M2382 3143 c-7 -3 -18 -16 -23 -30 -23 -62 61 -102 98 -47 15 24 15
29 2 53 -14 25 -48 36 -77 24z m68 -48 c0 -35 -36 -52 -61 -29 -25 22 -24 39
3 58 28 20 58 4 58 -29z"/>
<path d="M1192 3084 c-20 -37 12 -73 52 -58 12 5 16 16 14 38 -2 25 -8 32 -30
34 -17 2 -30 -3 -36 -14z m48 -39 c-10 -12 -16 -13 -26 -4 -8 6 -14 17 -14 24
0 19 23 25 39 9 12 -11 12 -16 1 -29z"/>
<path d="M1978 3028 l-25 -33 48 0 c41 0 46 2 35 15 -7 8 -18 23 -23 33 -9 17
-12 15 -35 -15z"/>
<path d="M1776 3005 c-15 -23 -15 -25 1 -25 10 0 35 3 56 6 36 6 37 8 21 25
-24 27 -59 24 -78 -6z"/>
<path d="M2150 3010 l-23 -17 33 -6 c18 -4 43 -7 56 -7 21 0 23 2 12 19 -16
26 -51 31 -78 11z"/>
<path d="M1594 2984 c-8 -20 -13 -38 -11 -41 3 -2 27 2 55 9 l49 13 -39 28
-39 27 -15 -36z"/>
<path d="M2348 2991 l-37 -28 55 -15 c30 -9 54 -11 54 -6 0 11 -28 78 -32 77
-2 0 -20 -13 -40 -28z"/>
<path d="M2753 2989 c-31 -11 -45 -42 -33 -73 18 -49 93 -42 106 9 10 41 -33
79 -73 64z m47 -24 c26 -32 -13 -81 -47 -59 -35 22 -23 74 17 74 10 0 23 -7
30 -15z"/>
<path d="M1183 2964 c-15 -24 -15 -29 -2 -53 11 -20 22 -26 49 -26 27 0 38 6
49 26 13 24 13 29 -2 53 -12 18 -26 26 -47 26 -21 0 -35 -8 -47 -26z m82 -14
c7 -22 -2 -47 -21 -54 -41 -16 -70 37 -35 65 25 20 47 16 56 -11z"/>
<path d="M1429 2918 c-9 -7 -19 -21 -22 -30 -6 -16 -1 -15 46 3 58 23 67 29
46 29 -8 0 -23 3 -34 6 -11 3 -27 -1 -36 -8z"/>
<path d="M2518 2923 c-29 -7 -21 -18 28 -36 l45 -16 -7 22 c-10 34 -26 41 -66
30z"/>
<path d="M1805 2905 c-111 -17 -235 -50 -330 -88 l-80 -32 3 -45 c2 -31 9 -49
23 -59 10 -7 19 -20 19 -27 0 -20 10 -18 94 16 300 119 631 119 930 1 87 -35
96 -37 96 -17 0 8 9 21 19 28 13 9 20 28 23 58 l3 45 -80 32 c-226 90 -498
123 -720 88z m450 -26 c109 -22 304 -83 332 -105 17 -12 16 -14 -15 -26 -31
-12 -33 -15 -27 -50 4 -21 3 -38 -2 -38 -5 0 -47 14 -94 31 -158 58 -223 70
-396 76 -202 7 -289 -5 -460 -63 -73 -24 -135 -44 -139 -44 -3 0 -3 17 1 38 6
35 4 38 -25 49 -18 7 -29 16 -26 22 9 14 170 70 283 97 197 48 374 52 568 13z"/>
<path d="M1950 2871 c-24 -10 -46 -23 -47 -28 -2 -6 18 -20 46 -31 l49 -22 51
21 c28 12 51 26 51 30 0 8 -45 30 -86 42 -10 3 -39 -2 -64 -12z"/>
<path d="M1802 2858 c-32 -32 8 -80 48 -58 34 18 19 70 -20 70 -9 0 -21 -5
-28 -12z m45 -9 c16 -16 5 -39 -18 -39 -12 0 -19 7 -19 18 0 31 17 41 37 21z"/>
<path d="M2142 2858 c-32 -32 8 -80 48 -58 34 18 19 70 -20 70 -9 0 -21 -5
-28 -12z m46 -26 c3 -16 -2 -22 -16 -22 -24 0 -35 23 -19 39 16 16 31 8 35
-17z"/>
<path d="M1603 2808 c-23 -18 -42 -36 -43 -40 0 -10 104 -21 126 -14 28 9 90
63 82 71 -3 4 -33 9 -65 11 -53 4 -61 2 -100 -28z"/>
<path d="M2258 2833 c-16 -2 -28 -8 -28 -12 0 -17 90 -71 118 -71 40 0 92 11
92 20 0 3 -20 21 -44 38 -44 32 -67 36 -138 25z"/>
<path d="M1486 2774 c-9 -8 -16 -19 -16 -24 0 -11 29 -40 40 -40 11 0 40 29
40 40 0 11 -29 40 -40 40 -5 0 -16 -7 -24 -16z m42 -27 c2 -10 -3 -17 -12 -17
-18 0 -29 16 -21 31 9 14 29 6 33 -14z"/>
<path d="M2466 2774 c-9 -8 -16 -19 -16 -24 0 -11 29 -40 40 -40 11 0 40 29
40 40 0 11 -29 40 -40 40 -5 0 -16 -7 -24 -16z m39 -25 c0 -7 -8 -15 -17 -17
-18 -3 -25 18 -11 32 10 10 28 1 28 -15z"/>
<path d="M1879 2730 c-300 -30 -570 -160 -776 -373 -177 -183 -286 -390 -334
-632 -18 -92 -18 -368 0 -460 74 -376 318 -699 657 -872 114 -59 254 -106 369
-124 112 -18 331 -15 435 5 447 85 822 412 959 834 45 140 56 214 56 387 0 96
-6 188 -14 230 -98 497 -485 886 -979 984 -116 23 -269 32 -373 21z m376 -41
c239 -48 457 -170 636 -356 451 -469 453 -1201 4 -1672 -244 -256 -543 -384
-895 -384 -352 0 -651 128 -895 384 -447 468 -448 1195 -2 1665 93 98 163 155
273 220 263 155 568 205 879 143z"/>
<path d="M1845 2569 c-156 -23 -316 -85 -452 -175 -452 -301 -610 -891 -368
-1379 64 -129 127 -215 227 -311 134 -127 297 -217 480 -265 116 -31 339 -38
461 -15 219 41 394 133 560 295 208 202 312 435 324 723 6 154 -5 247 -44 373
-159 506 -668 829 -1188 754z m317 -24 c421 -73 752 -370 864 -777 32 -116 43
-318 24 -435 -37 -234 -145 -438 -318 -605 -136 -130 -273 -210 -457 -264
-121 -36 -336 -45 -469 -20 -385 73 -696 344 -820 717 -127 381 -28 796 258
1083 245 244 592 358 918 301z"/>
<path d="M1409 2330 c-418 -290 -554 -849 -318 -1300 28 -52 63 -111 79 -130
l29 -35 62 62 63 62 -26 39 c-46 69 -87 159 -114 249 -22 73 -27 109 -27 208
-1 118 16 239 33 233 5 -2 40 -31 79 -65 l69 -62 1 -98 c0 -151 37 -264 126
-388 69 -97 176 -178 290 -220 77 -28 75 -25 75 -151 l0 -114 85 0 85 0 0 110
0 110 50 2 c28 1 59 2 70 2 12 1 75 -52 166 -138 l146 -140 57 30 c68 35 193
128 242 181 108 112 211 291 253 435 98 338 19 686 -216 959 -55 65 -221 199
-245 199 -6 0 -71 -58 -145 -128 l-133 -128 -65 19 c-97 28 -261 27 -364 -2
l-80 -22 -131 131 c-71 71 -132 130 -135 129 -3 0 -30 -18 -61 -39z m1301
-130 c321 -316 388 -816 160 -1199 -22 -36 -48 -77 -58 -90 l-19 -24 -47 43
c-25 23 -46 46 -46 50 0 4 18 38 40 74 45 74 81 161 106 256 26 96 23 290 -5
395 -42 156 -123 295 -240 410 l-61 59 -80 -79 -81 -80 33 -27 33 -27 -49 -50
-49 -50 -29 24 c-16 14 -34 25 -40 25 -5 0 -71 -58 -146 -130 -74 -71 -139
-130 -143 -130 -4 0 -68 59 -143 131 l-136 131 -45 -37 c-182 -149 -221 -450
-84 -654 22 -33 59 -77 82 -97 46 -40 135 -94 155 -94 9 0 12 58 12 255 l0
255 150 0 150 0 0 -65 0 -65 -75 0 -75 0 0 -55 0 -55 60 0 60 0 0 -70 0 -70
-60 0 -60 0 0 -81 0 -82 73 5 c86 6 171 37 234 85 l46 35 49 -49 49 -48 -38
-32 c-85 -73 -248 -133 -360 -133 l-53 0 0 -110 0 -110 -65 0 -64 0 -3 117 -3
116 -50 17 c-206 70 -367 243 -422 453 -24 90 -21 234 7 322 36 116 106 228
191 305 l39 36 -80 79 -80 79 -56 -54 c-112 -110 -194 -251 -235 -405 -30
-112 -30 -307 -1 -418 20 -74 80 -211 119 -270 l18 -27 -47 -47 c-55 -55 -49
-58 -118 58 -142 239 -174 529 -88 799 65 202 227 418 392 519 l38 24 132
-132 131 -131 50 19 c120 45 273 49 403 9 l63 -19 136 130 135 131 61 -43 c33
-23 90 -71 127 -107z m-103 -123 c160 -166 237 -357 236 -582 0 -134 -19 -223
-73 -341 l-31 -68 -317 317 -317 317 86 86 86 86 34 -30 34 -30 63 59 c34 32
62 63 62 68 0 6 -14 20 -30 33 l-30 22 62 63 c34 35 65 63 69 63 3 0 33 -28
66 -63z m-924 -810 c125 -118 127 -120 127 -163 0 -24 -4 -44 -9 -44 -23 0
-137 88 -173 134 -65 81 -125 223 -85 200 6 -4 69 -61 140 -127z"/>
<path d="M1911 1990 c-24 -5 -47 -12 -50 -16 -8 -7 118 -126 129 -122 5 2 39
30 75 62 53 47 64 61 52 68 -24 13 -157 18 -206 8z m166 -24 c7 -7 -74 -85
-89 -86 -11 0 -88 70 -88 80 0 18 160 23 177 6z"/>
</g>
</svg>
