<svg width="48" height="48" viewBox="0 0 48 48" fill="none" xmlns="http://www.w3.org/2000/svg">
<path d="M18 44H30C40 44 44 40 44 30V18C44 8 40 4 30 4H18C8 4 4 8 4 18V30C4 40 8 44 18 44Z" stroke="white" stroke-width="2" stroke-linecap="round" stroke-linejoin="round"/>
<path d="M15.4092 15.065C15.4218 15.055 15.434 15.0446 15.4458 15.0333C15.4446 15.0344 15.4435 15.0356 15.4423 15.0367C15.4439 15.0353 15.4455 15.0338 15.447 15.0323C15.4467 15.0327 15.4462 15.0329 15.4458 15.0333C15.535 14.948 15.6059 14.8214 15.7302 14.5984L15.8613 14.3633C16.3679 13.4544 16.6213 13 17 13C17.3787 13 17.6321 13.4544 18.1388 14.3633L18.2697 14.5984C18.4136 14.8567 18.4857 14.9859 18.598 15.0711C18.7102 15.1563 18.85 15.188 19.1295 15.2513L19.3841 15.3088C20.3679 15.5314 20.86 15.6427 20.977 16.0191C21.0941 16.3954 20.7587 16.7877 20.088 17.572L19.9144 17.7749C19.7238 17.9977 19.6285 18.1092 19.5856 18.247C19.5427 18.3849 19.5571 18.5337 19.5859 18.8311L19.6122 19.1017C19.7136 20.1482 19.7644 20.6715 19.458 20.9041C19.1515 21.1367 18.6909 20.9246 17.7697 20.5005L17.5314 20.3908C17.2696 20.2703 17.1388 20.21 17 20.21C16.8612 20.21 16.7304 20.2703 16.4686 20.3908L16.2303 20.5005C15.3091 20.9246 14.8484 21.1367 14.542 20.9041C14.2357 20.6715 14.2864 20.1482 14.3878 19.1017L14.4141 18.8311C14.4429 18.5337 14.4573 18.3849 14.4144 18.247C14.3715 18.1092 14.2762 17.9977 14.0856 17.7749L13.912 17.572C13.2413 16.7877 12.9059 16.3955 13.023 16.0191C13.14 15.6427 13.632 15.5314 14.6158 15.3088L14.8703 15.2513C15.1499 15.188 15.2898 15.1563 15.402 15.0711C15.4045 15.0692 15.4068 15.0669 15.4092 15.065Z" fill="white"/>
<path d="M29.4092 15.065C29.4218 15.055 29.434 15.0446 29.4458 15.0333C29.4446 15.0344 29.4435 15.0356 29.4423 15.0367C29.4439 15.0353 29.4455 15.0338 29.447 15.0323C29.4467 15.0327 29.4462 15.0329 29.4458 15.0333C29.535 14.948 29.6059 14.8214 29.7302 14.5984L29.8613 14.3633C30.3679 13.4544 30.6213 13 31 13C31.3787 13 31.6321 13.4544 32.1388 14.3633L32.2697 14.5984C32.4136 14.8567 32.4857 14.9859 32.598 15.0711C32.7102 15.1563 32.85 15.188 33.1295 15.2513L33.3841 15.3088C34.3679 15.5314 34.86 15.6427 34.977 16.0191C35.0941 16.3954 34.7587 16.7877 34.088 17.572L33.9144 17.7749C33.7238 17.9977 33.6285 18.1092 33.5856 18.247C33.5427 18.3849 33.5571 18.5337 33.5859 18.8311L33.6122 19.1017C33.7136 20.1482 33.7644 20.6715 33.458 20.9041C33.1515 21.1367 32.6909 20.9246 31.7697 20.5005L31.5314 20.3908C31.2696 20.2703 31.1388 20.21 31 20.21C30.8612 20.21 30.7304 20.2703 30.4686 20.3908L30.2303 20.5005C29.3091 20.9246 28.8484 21.1367 28.542 20.9041C28.2357 20.6715 28.2864 20.1482 28.3878 19.1017L28.4141 18.8311C28.4429 18.5337 28.4573 18.3849 28.4144 18.247C28.3715 18.1092 28.2762 17.9977 28.0856 17.7749L27.912 17.572C27.2413 16.7877 26.9059 16.3955 27.023 16.0191C27.14 15.6427 27.632 15.5314 28.6158 15.3088L28.8703 15.2513C29.1499 15.188 29.2898 15.1563 29.402 15.0711C29.4045 15.0692 29.4068 15.0669 29.4092 15.065Z" fill="white"/>
<path d="M16.8 26.5996H31.2C32.2 26.5996 33 27.3996 33 28.3996C33 33.3796 28.98 37.3996 24 37.3996C19.02 37.3996 15 33.3796 15 28.3996C15 27.3996 15.8 26.5996 16.8 26.5996Z" stroke="white" stroke-width="2" stroke-miterlimit="10" stroke-linecap="round" stroke-linejoin="round"/>
</svg>
